<?xml version="1.0" ?><svg viewBox="0 0 64 64" xmlns="http://www.w3.org/2000/svg"><title/><g data-name="28-man" id="_28-man"><path d="M38,42V63H26V42l2-5s0,4,4,4,4-4,4-4Z" style="fill:#e9edf5"/><path d="M36,37s0,4-4,4-4-4-4-4l-2,5v5l2-5s0,4,4,4,4-4,4-4l2,5V42Z" style="fill:#afb4c8"/><path d="M23,40.38a8.38,8.38,0,0,1-1.92-1.97A5.915,5.915,0,0,1,20,35s0-2.83,4.59-2.99A8.3,8.3,0,0,0,28,34.34V37l-2,5A11.919,11.919,0,0,1,23,40.38Z" style="fill:#f92814"/><path d="M41,40.38A11.919,11.919,0,0,1,38,42l-2-5V34.34a8.3,8.3,0,0,0,3.41-2.33C44,32.17,44,35,44,35a5.915,5.915,0,0,1-1.08,3.41A8.38,8.38,0,0,1,41,40.38Z" style="fill:#f92814"/><path d="M26,38a11.919,11.919,0,0,1-3-1.62,8.38,8.38,0,0,1-1.92-1.97,6.534,6.534,0,0,1-.492-.861A2.557,2.557,0,0,0,20,35a5.915,5.915,0,0,0,1.08,3.41A8.38,8.38,0,0,0,23,40.38,11.919,11.919,0,0,0,26,42l2-5V34.34c-.162-.059-.3-.135-.455-.2Z" style="fill:#ff7045"/><path d="M42.92,34.41A8.38,8.38,0,0,1,41,36.38,11.919,11.919,0,0,1,38,38l-1.545-3.862c-.153.067-.293.143-.455.2V37l2,5a11.919,11.919,0,0,0,3-1.62,8.38,8.38,0,0,0,1.92-1.97A5.915,5.915,0,0,0,44,35a2.557,2.557,0,0,0-.588-1.451A6.534,6.534,0,0,1,42.92,34.41Z" style="fill:#ff7045"/><path d="M26,42V63H9V41l12-2.53.08-.06A8.38,8.38,0,0,0,23,40.38,11.919,11.919,0,0,0,26,42Z" style="fill:#ff7045"/><path d="M41,40.38a8.38,8.38,0,0,0,1.92-1.97l.08.06L55,41V63H38V42A11.919,11.919,0,0,0,41,40.38Z" style="fill:#ff7045"/><path d="M23,40.38a8.38,8.38,0,0,1-1.92-1.97l-.08.06L9,41v4l12-2.53.08-.06A8.38,8.38,0,0,0,23,44.38,11.919,11.919,0,0,0,26,46V42A11.919,11.919,0,0,1,23,40.38Z" style="fill:#f92814"/><path d="M43,38.47l-.08-.06A8.38,8.38,0,0,1,41,40.38,11.919,11.919,0,0,1,38,42v4a11.919,11.919,0,0,0,3-1.62,8.38,8.38,0,0,0,1.92-1.97l.08.06L55,45V41Z" style="fill:#f92814"/><path d="M37,26v1c-4,0-5-1-5-1s-1,1-5,1V26c0-3,5-3,5-3S37,23,37,26Z" style="fill:#afb4c8"/><path d="M26,21v4l1,1v1c4,0,5-1,5-1s1,1,5,1V26l1-1V21l2-2h1a1,1,0,0,1,1,1v5a11.785,11.785,0,0,1-2.59,7.01A8.3,8.3,0,0,1,36,34.34,11.46,11.46,0,0,1,32,35a11.46,11.46,0,0,1-4-.66,8.3,8.3,0,0,1-3.41-2.33A11.785,11.785,0,0,1,22,25V20a1,1,0,0,1,1-1h1Z" style="fill:#414952"/><path d="M36,31.34A11.46,11.46,0,0,1,32,32a11.46,11.46,0,0,1-4-.66,8.3,8.3,0,0,1-3.41-2.33A11.785,11.785,0,0,1,22,22v3a11.785,11.785,0,0,0,2.59,7.01A8.3,8.3,0,0,0,28,34.34,11.46,11.46,0,0,0,32,35a11.46,11.46,0,0,0,4-.66,8.3,8.3,0,0,0,3.41-2.33A11.785,11.785,0,0,0,42,25V22a11.785,11.785,0,0,1-2.59,7.01A8.3,8.3,0,0,1,36,31.34Z" style="fill:#707789"/><path d="M24,14v5H23l-1.83-1.83A4,4,0,0,1,20,14.34V9s0-8,8-8h8s8,0,8,8v5.34a4,4,0,0,1-1.17,2.83L41,19H40V11a2.938,2.938,0,0,1-3-3S37,14,24,14Z" style="fill:#414952"/><path d="M36,1H28c-3.686,0-5.662,1.7-6.734,3.531A8.307,8.307,0,0,1,25.5,3.5h8s8,0,8,8v5.34A4,4,0,0,1,40.861,19H41l1.83-1.83A4,4,0,0,0,44,14.34V9C44,1,36,1,36,1Z" style="fill:#707789"/><path d="M28,34.34A11.46,11.46,0,0,0,32,35a11.46,11.46,0,0,0,4-.66V37s0,4-4,4-4-4-4-4Z" style="fill:#ffb680"/><path d="M32,35a11.46,11.46,0,0,1-4-.66V37s0,.134.024.348A11.473,11.473,0,0,0,32,38a11.473,11.473,0,0,0,3.976-.652C36,37.134,36,37,36,37V34.34A11.46,11.46,0,0,1,32,35Z" style="fill:#eb975d"/><path d="M32,23s-5,0-5,3l-1-1V21l-2-2V14c13,0,13-6,13-6a2.938,2.938,0,0,0,3,3v8l-2,2v4l-1,1C37,23,32,23,32,23Z" style="fill:#ffdaaa"/><path d="M37,8s0,6-13,6v3c13,0,13-6,13-6a2.938,2.938,0,0,0,3,3V11A2.938,2.938,0,0,1,37,8Z" style="fill:#ffb680"/><path d="M27,26c0-3,5-3,5-3s5,0,5,3v1c-4,0-5-1-5-1s-1,1-5,1Z" style="fill:none;stroke:#000;stroke-linejoin:round;stroke-width:2px"/><path d="M23,19l-1.83-1.83A4,4,0,0,1,20,14.34V9s0-8,8-8h8s8,0,8,8v5.34a4,4,0,0,1-1.17,2.83L41,19" style="fill:none;stroke:#000;stroke-linejoin:round;stroke-width:2px"/><path d="M37,26l1-1V21l2-2h1a1,1,0,0,1,1,1v5a11.785,11.785,0,0,1-2.59,7.01A8.3,8.3,0,0,1,36,34.34,11.46,11.46,0,0,1,32,35a11.46,11.46,0,0,1-4-.66,8.3,8.3,0,0,1-3.41-2.33A11.785,11.785,0,0,1,22,25V20a1,1,0,0,1,1-1h1l2,2v4l1,1" style="fill:none;stroke:#000;stroke-linejoin:round;stroke-width:2px"/><path d="M24,19V14c13,0,13-6,13-6a2.938,2.938,0,0,0,3,3v8" style="fill:none;stroke:#000;stroke-linejoin:round;stroke-width:2px"/><path d="M24,14s0-6,2-6" style="fill:none;stroke:#000;stroke-linejoin:round;stroke-width:2px"/><polyline points="21 38.47 9 41 9 63 15 63 26 63 38 63 49 63 55 63 55 41 43 38.47" style="fill:none;stroke:#000;stroke-linejoin:round;stroke-width:2px"/><line style="fill:none;stroke:#000;stroke-linejoin:round;stroke-width:2px" x1="15" x2="15" y1="63" y2="50"/><line style="fill:none;stroke:#000;stroke-linejoin:round;stroke-width:2px" x1="49" x2="49" y1="63" y2="50"/><polyline points="38 63 38 42 36 37 36 34.34 36 34" style="fill:none;stroke:#000;stroke-linejoin:round;stroke-width:2px"/><polyline points="26 63 26 42 28 37 28 34.34 28 34" style="fill:none;stroke:#000;stroke-linejoin:round;stroke-width:2px"/><path d="M38,42a11.919,11.919,0,0,0,3-1.62,8.38,8.38,0,0,0,1.92-1.97A5.915,5.915,0,0,0,44,35s0-2.83-4.59-2.99C39.28,32,39.14,32,39,32" style="fill:none;stroke:#000;stroke-linejoin:round;stroke-width:2px"/><path d="M26,42a11.919,11.919,0,0,1-3-1.62,8.38,8.38,0,0,1-1.92-1.97A5.915,5.915,0,0,1,20,35s0-2.83,4.59-2.99c.13-.01.27-.01.41-.01" style="fill:none;stroke:#000;stroke-linejoin:round;stroke-width:2px"/><polyline points="23 40 23 40.38 23 48" style="fill:none;stroke:#000;stroke-linejoin:round;stroke-width:2px"/><polyline points="41 40 41 40.38 41 48" style="fill:none;stroke:#000;stroke-linejoin:round;stroke-width:2px"/><path d="M28,37s0,4,4,4,4-4,4-4" style="fill:none;stroke:#000;stroke-linejoin:round;stroke-width:2px"/></g></svg>