<?xml version="1.0" ?><svg viewBox="0 0 64 64" xmlns="http://www.w3.org/2000/svg"><title/><g data-name="64-nurse" id="_64-nurse"><path d="M23.42,19l.5,6H23a3,3,0,0,1,0-6Z" style="fill:#ffb680"/><path d="M41,19a3,3,0,0,1,0,6h-.92l.5-6Z" style="fill:#ffb680"/><path d="M36.44,37.56,32,42l-4.44-4.44A1.962,1.962,0,0,0,28,36.31V33l.03-.06a7.964,7.964,0,0,0,7.94,0L36,33v3.31A1.962,1.962,0,0,0,36.44,37.56Z" style="fill:#ffb680"/><path d="M32,37a7.954,7.954,0,0,0,3.97-1.06L36,36V33l-.03-.06a7.964,7.964,0,0,1-7.94,0L28,33v3l.03-.06A7.954,7.954,0,0,0,32,37Z" style="fill:#eb975d"/><path d="M36,38l.44-.44A1.962,1.962,0,0,1,36,36.31Z" style="fill:#eb975d"/><path d="M28,36.31a1.962,1.962,0,0,1-.44,1.25L28,38Z" style="fill:#eb975d"/><path d="M40.58,19l-.5,6L40,26a8.014,8.014,0,0,1-2.34,5.66,7.838,7.838,0,0,1-1.69,1.28A8,8,0,0,1,24,26l-.08-1-.5-6-.37-4.36a20.269,20.269,0,0,1,4.14-1.42C28.04,14.19,31.64,18,36,18c0,0,1.82-2.73,1.12-4.71a20.525,20.525,0,0,1,3.83,1.35Z" style="fill:#ffdaaa"/><path d="M27.19,16.22C28.04,17.19,31.64,21,36,21c0,0,1.82-2.73,1.12-4.71A20.526,20.526,0,0,1,40.7,17.539l.246-2.9a20.525,20.525,0,0,0-3.83-1.35C37.82,15.27,36,18,36,18c-4.36,0-7.96-3.81-8.81-4.78a20.269,20.269,0,0,0-4.14,1.42l.245,2.893A20.319,20.319,0,0,1,27.19,16.22Z" style="fill:#ffb680"/><path d="M27.56,37.56a1.993,1.993,0,0,1-1.23.72l-3.34.67L18,39.96V15a13.79,13.79,0,0,1,1.3-5.88q1.485,2.94,2.99,5.88c.25-.13.5-.25.76-.36L23.42,19H23a3,3,0,0,0,0,6h.92L24,26a7.974,7.974,0,0,0,4.03,6.94L28,33v3.31A1.962,1.962,0,0,1,27.56,37.56Z" style="fill:#fad17f"/><path d="M24,26l-.08-1H23a3,3,0,0,1,0-6h.42l-.37-4.36c-.26.11-.51.23-.76.36q-1.5-2.94-2.99-5.88a13.731,13.731,0,0,0-.822,2.317Q19.384,13.218,20.29,15c.25-.13.5-.25.76-.36L21.42,19H21a3,3,0,0,0,0,6h.92L22,26a7.974,7.974,0,0,0,4.03,6.94L26,33v3.31a1.962,1.962,0,0,1-.44,1.25,1.993,1.993,0,0,1-1.23.72l-3.34.67-2.99.6v.405l4.99-1.01,3.34-.67a1.993,1.993,0,0,0,1.23-.72A1.962,1.962,0,0,0,28,36.31V33l.03-.06A7.974,7.974,0,0,1,24,26Z" style="fill:#cc9f56"/><path d="M46,15V39.96l-4.99-1.01-3.34-.67a1.993,1.993,0,0,1-1.23-.72A1.962,1.962,0,0,1,36,36.31V33l-.03-.06a7.838,7.838,0,0,0,1.69-1.28A8.014,8.014,0,0,0,40,26l.08-1H41a3,3,0,0,0,0-6h-.42l.37-4.36c.26.11.51.23.76.36l3-5.88A13.9,13.9,0,0,1,46,15Z" style="fill:#fad17f"/><path d="M43.01,38.95l-3.34-.67a1.993,1.993,0,0,1-1.23-.72A1.962,1.962,0,0,1,38,36.31V33l-.03-.06a7.838,7.838,0,0,0,1.69-1.28A8.014,8.014,0,0,0,42,26l.08-1H43a3,3,0,0,0,0-6h-.42l.37-4.36c.26.11.51.23.76.36l1.816-3.56a13.677,13.677,0,0,0-.816-2.32l-3,5.88c-.25-.13-.5-.25-.76-.36L40.58,19H41a3,3,0,0,1,0,6h-.92L40,26a8.014,8.014,0,0,1-2.34,5.66,7.838,7.838,0,0,1-1.69,1.28L36,33v3.31a1.962,1.962,0,0,0,.44,1.25,1.993,1.993,0,0,0,1.23.72l3.34.67L46,39.96v-.405Z" style="fill:#cc9f56"/><path d="M37.12,13.29C37.82,15.27,36,18,36,18c-4.36,0-7.96-3.81-8.81-4.78A21.363,21.363,0,0,1,37.12,13.29Z" style="fill:#fad17f"/><path d="M37.12,13.29c-.447-.11-.9-.2-1.348-.282A8.28,8.28,0,0,1,34.5,16.5c-3.023,0-5.679-1.831-7.308-3.278C28.045,14.2,31.643,18,36,18,36,18,37.82,15.27,37.12,13.29Z" style="fill:#fcf2b6"/><path d="M44.71,9.12l-3,5.88c-.25-.13-.5-.25-.76-.36a20.525,20.525,0,0,0-3.83-1.35,21.363,21.363,0,0,0-9.93-.07,20.269,20.269,0,0,0-4.14,1.42c-.26.11-.51.23-.76.36q-1.5-2.94-2.99-5.88c-.77-1.5-1.54-3.01-2.3-4.51a32.989,32.989,0,0,1,30,0C46.24,6.11,45.47,7.62,44.71,9.12Z" style="fill:#e9edf5"/><path d="M45.363,7.835Q46.182,6.221,47,4.61a32.989,32.989,0,0,0-30,0c.543,1.072,1.094,2.147,1.643,3.222A32.985,32.985,0,0,1,45.363,7.835Z" style="fill:#afb4c8"/><path d="M37.67,38.28l3.34.67L41,39l-9,9-9-9-.01-.05,3.34-.67a1.993,1.993,0,0,0,1.23-.72L32,42l4.44-4.44A1.993,1.993,0,0,0,37.67,38.28Z" style="fill:#ff7045"/><path d="M46,39.96l1.82.37A3.994,3.994,0,0,1,51,44.25V63H13V44.25a3.994,3.994,0,0,1,3.18-3.92L18,39.96l4.99-1.01L23,39l9,9,9-9,.01-.05Z" style="fill:#e9edf5"/><path d="M47.82,40.33,46,39.96l-4.99-1.01L41,39l-9,9-9-9-.01-.05L18,39.96l-1.82.37A3.994,3.994,0,0,0,13,44.25v4a3.994,3.994,0,0,1,3.18-3.92L18,43.96l4.99-1.01L23,43l9,9,9-9,.01-.05L46,43.96l1.82.37A3.994,3.994,0,0,1,51,48.25v-4A3.994,3.994,0,0,0,47.82,40.33Z" style="fill:#afb4c8"/><path d="M36,33v3.31a1.962,1.962,0,0,0,.44,1.25,1.993,1.993,0,0,0,1.23.72l3.34.67L46,39.96l1.82.37A3.994,3.994,0,0,1,51,44.25V63H13V44.25a3.994,3.994,0,0,1,3.18-3.92L18,39.96l4.99-1.01,3.34-.67a1.993,1.993,0,0,0,1.23-.72A1.962,1.962,0,0,0,28,36.31V33" style="fill:none;stroke:#000;stroke-linejoin:round;stroke-width:2px"/><path d="M45,48v5s2,3,2,10" style="fill:none;stroke:#000;stroke-linejoin:round;stroke-width:2px"/><path d="M19,48v5s-2,3-2,10" style="fill:none;stroke:#000;stroke-linejoin:round;stroke-width:2px"/><polyline points="37 37 36.44 37.56 32 42 27.56 37.56 27 37" style="fill:none;stroke:#000;stroke-linejoin:round;stroke-width:2px"/><path d="M23,14l.05.64L23.42,19l.5,6L24,26a7.992,7.992,0,0,0,11.97,6.94,7.838,7.838,0,0,0,1.69-1.28A8.014,8.014,0,0,0,40,26l.08-1,.5-6,.37-4.36L41,14" style="fill:none;stroke:#000;stroke-linejoin:round;stroke-width:2px"/><path d="M19.35,9a.612.612,0,0,0-.05.12A13.79,13.79,0,0,0,18,15V40" style="fill:none;stroke:#000;stroke-linejoin:round;stroke-width:2px"/><path d="M46,40V15a13.9,13.9,0,0,0-1.29-5.88c-.02-.04-.03-.07-.05-.11" style="fill:none;stroke:#000;stroke-linejoin:round;stroke-width:2px"/><path d="M40,19h1a3,3,0,0,1,0,6H40" style="fill:none;stroke:#000;stroke-linejoin:round;stroke-width:2px"/><path d="M24,19H23a3,3,0,0,0,0,6h1" style="fill:none;stroke:#000;stroke-linejoin:round;stroke-width:2px"/><path d="M44.71,9.12l-3,5.88c-.25-.13-.5-.25-.76-.36a20.525,20.525,0,0,0-3.83-1.35,21.363,21.363,0,0,0-9.93-.07,20.269,20.269,0,0,0-4.14,1.42c-.26.11-.51.23-.76.36q-1.5-2.94-2.99-5.88c-.77-1.5-1.54-3.01-2.3-4.51a32.989,32.989,0,0,1,30,0C46.24,6.11,45.47,7.62,44.71,9.12Z" style="fill:none;stroke:#000;stroke-linejoin:round;stroke-width:2px"/><polyline points="32 4 32 7 32 10" style="fill:none;stroke:#000;stroke-linejoin:round;stroke-width:2px"/><polyline points="35 7 32 7 29 7" style="fill:none;stroke:#000;stroke-linejoin:round;stroke-width:2px"/><polyline points="23 39 32 48 41 39" style="fill:none;stroke:#000;stroke-linejoin:round;stroke-width:2px"/><line style="fill:none;stroke:#000;stroke-linejoin:round;stroke-width:2px" x1="32" x2="32" y1="48" y2="51"/><path d="M27,13s.07.08.19.22C28.04,14.19,31.64,18,36,18c0,0,1.82-2.73,1.12-4.71A1.476,1.476,0,0,0,37,13" style="fill:none;stroke:#000;stroke-linejoin:round;stroke-width:2px"/></g></svg>