<?xml version="1.0" ?><svg viewBox="0 0 64 64" xmlns="http://www.w3.org/2000/svg"><title/><g data-name="13-doctor" id="_13-doctor"><polygon points="9 63 9 41 28 37 36 37 55 41 55 63 9 63" style="fill:#e9edf5"/><polygon points="36 37 28 37 9 41 9 45 28 41 36 41 55 45 55 41 36 37" style="fill:#afb4c8"/><circle cx="42" cy="49" r="2" style="fill:#19cffc"/><path d="M32,15H28c-4,0-4-4-4-4v5a4.025,4.025,0,0,0-2.83,1.17L21,17l-1-1V13a12,12,0,0,1,24,0v3l-1,1-.17.17A4.025,4.025,0,0,0,40,16V15H32Z" style="fill:#963b11"/><path d="M32,1a11.967,11.967,0,0,0-9.42,4.58A11.99,11.99,0,0,1,42,15v1.557a4.078,4.078,0,0,1,.83.613L43,17l1-1V13A12,12,0,0,0,32,1Z" style="fill:#d96330"/><circle cx="36" cy="21" r="3" style="fill:#f5fafc"/><circle cx="28" cy="21" r="3" style="fill:#f5fafc"/><path d="M40,24v1a7.992,7.992,0,0,1-11.97,6.94,7.838,7.838,0,0,1-1.69-1.28A8.014,8.014,0,0,1,24,25V21h1a3,3,0,0,0,6,0h2a3,3,0,0,0,6,0h1Z" style="fill:#ffdaaa"/><path d="M40,16v5H39a3,3,0,0,0-6,0H31a3,3,0,0,0-6,0H24V11s0,4,4,4H40Z" style="fill:#ffb680"/><path d="M24,21v3a4,4,0,1,1,0-8Z" style="fill:#eb975d"/><path d="M42.83,17.17A4,4,0,0,1,40,24V16A4.025,4.025,0,0,1,42.83,17.17Z" style="fill:#eb975d"/><path d="M36,32v5l-4,4-4-4V32l.03-.06a7.964,7.964,0,0,0,7.94,0Z" style="fill:#ffb680"/><path d="M35.97,31.94a7.964,7.964,0,0,1-7.94,0L28,32v3l.03-.06a7.964,7.964,0,0,0,7.94,0L36,35V32Z" style="fill:#eb975d"/><polygon points="38.84 37.6 32 63 32 41 36 37 38.84 37.6" style="fill:#06ccab"/><polygon points="32 41 32 63 25.16 37.6 28 37 32 41" style="fill:#64e1dc"/><path d="M36,18a2.962,2.962,0,0,0-1,.184,2.982,2.982,0,0,1,0,5.632A2.962,2.962,0,0,0,36,24a3,3,0,0,0,0-6Z" style="fill:#96e8ff"/><path d="M28,18a2.962,2.962,0,0,0-1,.184,2.982,2.982,0,0,1,0,5.632A2.962,2.962,0,0,0,28,24a3,3,0,0,0,0-6Z" style="fill:#96e8ff"/><path d="M40,15V25a7.992,7.992,0,0,1-11.97,6.94,7.838,7.838,0,0,1-1.69-1.28A8.014,8.014,0,0,1,24,25V11s0,4,4,4H40Z" style="fill:none;stroke:#000;stroke-linejoin:round;stroke-width:2px"/><path d="M21,17l-1-1V13a12,12,0,0,1,24,0v3l-1,1" style="fill:none;stroke:#000;stroke-linejoin:round;stroke-width:2px"/><path d="M40,24a4,4,0,1,0,0-8" style="fill:none;stroke:#000;stroke-linejoin:round;stroke-width:2px"/><path d="M24,16a4,4,0,0,0,0,8" style="fill:none;stroke:#000;stroke-linejoin:round;stroke-width:2px"/><polyline points="28 32 28 37 25.16 37.6 22 38.26 9 41 9 63 15 63 32 63 49 63 55 63 55 41 42 38.26 38.84 37.6 36 37 36 32" style="fill:none;stroke:#000;stroke-linejoin:round;stroke-width:2px"/><line style="fill:none;stroke:#000;stroke-linejoin:round;stroke-width:2px" x1="40" x2="40" y1="15" y2="10"/><path d="M28,10s0,5,4,5" style="fill:none;stroke:#000;stroke-linejoin:round;stroke-width:2px"/><path d="M32,10s0,5,4,5" style="fill:none;stroke:#000;stroke-linejoin:round;stroke-width:2px"/><path d="M36,10s0,5,4,5" style="fill:none;stroke:#000;stroke-linejoin:round;stroke-width:2px"/><circle cx="36" cy="21" r="3" style="fill:none;stroke:#000;stroke-linejoin:round;stroke-width:2px"/><circle cx="28" cy="21" r="3" style="fill:none;stroke:#000;stroke-linejoin:round;stroke-width:2px"/><line style="fill:none;stroke:#000;stroke-linejoin:round;stroke-width:2px" x1="31" x2="33" y1="21" y2="21"/><line style="fill:none;stroke:#000;stroke-linejoin:round;stroke-width:2px" x1="39" x2="40" y1="21" y2="21"/><line style="fill:none;stroke:#000;stroke-linejoin:round;stroke-width:2px" x1="24" x2="25" y1="21" y2="21"/><line style="fill:none;stroke:#000;stroke-linejoin:round;stroke-width:2px" x1="49" x2="49" y1="63" y2="50"/><polyline points="15 63 15 58 15 50" style="fill:none;stroke:#000;stroke-linejoin:round;stroke-width:2px"/><polyline points="28 37 32 41 36 37" style="fill:none;stroke:#000;stroke-linejoin:round;stroke-width:2px"/><polyline points="25 37 25.16 37.6 32 63 38.84 37.6 39 37" style="fill:none;stroke:#000;stroke-linejoin:round;stroke-width:2px"/><line style="fill:none;stroke:#000;stroke-linejoin:round;stroke-width:2px" x1="32" x2="32" y1="41" y2="63"/><polyline points="42 38 42 38.26 42 47" style="fill:none;stroke:#000;stroke-linejoin:round;stroke-width:2px"/><circle cx="42" cy="49" r="2" style="fill:none;stroke:#000;stroke-linejoin:round;stroke-width:2px"/><path d="M20,58H18V52a4,4,0,0,1,8,0v6H24" style="fill:none;stroke:#000;stroke-linejoin:round;stroke-width:2px"/><polyline points="22 48 22 38.26 22 38" style="fill:none;stroke:#000;stroke-linejoin:round;stroke-width:2px"/></g></svg>