<?xml version="1.0" ?><svg viewBox="0 0 64 64" xmlns="http://www.w3.org/2000/svg"><title/><g data-name="21-Man" id="_21-Man"><polygon points="29.14 39 32 44 29 47 26 40 26 37.42 28 37 29.14 39" style="fill:#7e8596"/><polygon points="38 37.42 38 40 35 47 32 44 34.86 39 36 37 38 37.42" style="fill:#7e8596"/><polygon points="15 55 9 55 9 41 26 37.42 26 40 29 47 32 44 32 63 15 63 15 59 15 55" style="fill:#e9edf5"/><path d="M49,55v8H32V44l3,3,3-7V37.42L55,41V55Zm-5,2V51H38v6l3,1Z" style="fill:#e9edf5"/><polygon points="29 47 26 40 26 37.42 9 41 9 45 26 41.42 26 44 29 51 32 48 32 44 29 47" style="fill:#afb4c8"/><polygon points="41 62 44 61 44 57 41 58 38 57 38 61 41 62" style="fill:#afb4c8"/><polygon points="38 37.42 38 40 35 47 32 44 32 48 35 51 38 44 38 41.42 55 45 55 41 38 37.42" style="fill:#afb4c8"/><polygon points="15 55 15 59 9 59 7 59 7 55 9 55 15 55" style="fill:#ff7045"/><polygon points="57 55 57 59 55 59 49 59 49 55 55 55 57 55" style="fill:#ff7045"/><polygon points="44 51 44 57 41 58 38 57 38 51 44 51" style="fill:#ff7045"/><polygon points="34.86 39 32 44 29.14 39 34.86 39" style="fill:#ff7045"/><path d="M24,19v5a4,4,0,1,1,0-8Z" style="fill:#eb975d"/><path d="M42.83,17.17A4,4,0,0,1,40,24V16A4.025,4.025,0,0,1,42.83,17.17Z" style="fill:#eb975d"/><path d="M24,16a4.025,4.025,0,0,0-2.83,1.17L21,17l-1-1V10.06a20.88,20.88,0,0,0,4,1.24Z" style="fill:#414952"/><path d="M20,10.06v2.065a22.628,22.628,0,0,0,2.5.675v3.5A3.973,3.973,0,0,1,24,16V11.3A20.88,20.88,0,0,1,20,10.06Z" style="fill:#707789"/><path d="M24,11.3a20.88,20.88,0,0,1-4-1.24A10.216,10.216,0,0,1,18,9c0-8,9-8,9-8h9l2,2,2-2h2l2,2V16l-1,1-.17.17A4.025,4.025,0,0,0,40,16V8s0,4-9,4A32.62,32.62,0,0,1,24,11.3Z" style="fill:#414952"/><path d="M27,1s-5.388.018-7.822,3.738A11.9,11.9,0,0,1,25,3h9l2,2,2-2L36,1Z" style="fill:#707789"/><path d="M42,1H40L38,3h2l2,2V16.557a4.078,4.078,0,0,1,.83.613L43,17l1-1V3Z" style="fill:#707789"/><path d="M27,23a2.006,2.006,0,0,0,2,2h6a2.006,2.006,0,0,0,2-2V22l3-3V29a4,4,0,0,1-4,4H28a4,4,0,0,1-4-4V19l3,3Z" style="fill:#414952"/><path d="M37,22v1a2.006,2.006,0,0,1-2,2H29a2.006,2.006,0,0,1-2-2V22l-3-3v3l3,3v1a2.006,2.006,0,0,0,2,2h6a2.006,2.006,0,0,0,2-2V25l3-3V19Z" style="fill:#707789"/><polygon points="36 33 36 37 34.86 39 29.14 39 28 37 28 33 36 33" style="fill:#eb975d"/><rect height="3" style="fill:#b25e1e" width="8" x="28" y="33"/><path d="M40,16v3l-3,3v1a2.006,2.006,0,0,1-2,2H29a2.006,2.006,0,0,1-2-2V22l-3-3V11.3a32.62,32.62,0,0,0,7,.7c9,0,9-4,9-4Z" style="fill:#eb975d"/><path d="M31,12a32.62,32.62,0,0,1-7-.7v3a32.62,32.62,0,0,0,7,.7c9,0,9-4,9-4V8S40,12,31,12Z" style="fill:#b25e1e"/><path d="M40,24a4,4,0,1,0,0-8" style="fill:none;stroke:#000;stroke-linejoin:round;stroke-width:2px"/><path d="M24,16a4,4,0,0,0,0,8" style="fill:none;stroke:#000;stroke-linejoin:round;stroke-width:2px"/><polyline points="36 32 36 33 36 37 38 37.42 55 41 55 55" style="fill:none;stroke:#000;stroke-linejoin:round;stroke-width:2px"/><polyline points="9 59 9 63 15 63 32 63 49 63 55 63 55 59" style="fill:none;stroke:#000;stroke-linejoin:round;stroke-width:2px"/><polyline points="28 32 28 33 28 37 26 37.42 9 41 9 55" style="fill:none;stroke:#000;stroke-linejoin:round;stroke-width:2px"/><polyline points="28 37 29.14 39 32 44 34.86 39 36 37" style="fill:none;stroke:#000;stroke-linejoin:round;stroke-width:2px"/><line style="fill:none;stroke:#000;stroke-linejoin:round;stroke-width:2px" x1="49" x2="49" y1="55" y2="50"/><line style="fill:none;stroke:#000;stroke-linejoin:round;stroke-width:2px" x1="49" x2="49" y1="63" y2="59"/><line style="fill:none;stroke:#000;stroke-linejoin:round;stroke-width:2px" x1="15" x2="15" y1="55" y2="50"/><line style="fill:none;stroke:#000;stroke-linejoin:round;stroke-width:2px" x1="15" x2="15" y1="63" y2="59"/><path d="M24,19l3,3v1a2.006,2.006,0,0,0,2,2h6a2.006,2.006,0,0,0,2-2V22l3-3" style="fill:none;stroke:#000;stroke-linejoin:round;stroke-width:2px"/><polyline points="32 44 35 47 38 40 38 37.42 38 37" style="fill:none;stroke:#000;stroke-linejoin:round;stroke-width:2px"/><polyline points="26 37 26 37.42 26 40 29 47 32 44 32 63" style="fill:none;stroke:#000;stroke-linejoin:round;stroke-width:2px"/><polyline points="29 39 29.14 39 34.86 39 35 39" style="fill:none;stroke:#000;stroke-linejoin:round;stroke-width:2px"/><path d="M43,17l1-1V3L42,1H40L38,3,36,1H27s-9,0-9,8a10.216,10.216,0,0,0,2,1.06,20.88,20.88,0,0,0,4,1.24,32.62,32.62,0,0,0,7,.7c9,0,9-4,9-4V29a4,4,0,0,1-4,4H28a4,4,0,0,1-4-4V11" style="fill:none;stroke:#000;stroke-linejoin:round;stroke-width:2px"/><polyline points="21 17 20 16 20 10.06 20 10" style="fill:none;stroke:#000;stroke-linejoin:round;stroke-width:2px"/><polygon points="9 55 7 55 7 59 9 59 15 59 15 55 9 55" style="fill:none;stroke:#000;stroke-linejoin:round;stroke-width:2px"/><polygon points="49 59 55 59 57 59 57 55 55 55 49 55 49 59" style="fill:none;stroke:#000;stroke-linejoin:round;stroke-width:2px"/><polygon points="44 57 44 51 38 51 38 57 41 58 44 57" style="fill:none;stroke:#000;stroke-linejoin:round;stroke-width:2px"/></g></svg>