<?xml version="1.0" ?><svg viewBox="0 0 64 64" xmlns="http://www.w3.org/2000/svg"><title/><g data-name="24-Miner" id="_24-Miner"><path d="M24,16v8a4,4,0,0,1-4-4V16Z" style="fill:#eb975d"/><path d="M44,16v4a4,4,0,0,1-4,4V16Z" style="fill:#eb975d"/><path d="M28,37V32l.04-.06A7.843,7.843,0,0,0,32,33a7.954,7.954,0,0,0,3.97-1.06L36,32v5l-4,4Z" style="fill:#eb975d"/><path d="M40,16v9a8.013,8.013,0,0,1-8,8,7.843,7.843,0,0,1-3.96-1.06,7.585,7.585,0,0,1-1.7-1.28A8.014,8.014,0,0,1,24,25V16h2.81a5.989,5.989,0,0,0,10.38,0Z" style="fill:#ffb680"/><path d="M37.19,16a5.989,5.989,0,0,1-10.38,0H24v3h2.81a5.989,5.989,0,0,0,10.38,0H40V16Z" style="fill:#eb975d"/><polygon points="39 37.63 39 40 35 44 32 41 36 37 39 37.63" style="fill:#7e8596"/><polygon points="32 41 29 44 25 40 25 37.63 28 37 32 41" style="fill:#7e8596"/><polygon points="22 38.26 22 50 19 50 19 39 18.98 38.9 22 38.26" style="fill:#7e8596"/><polygon points="45 39 45 50 42 50 42 38.26 45.02 38.9 45 39" style="fill:#7e8596"/><polygon points="19 50 22 50 32 50 42 50 45 50 45 63 19 63 19 50" style="fill:#e9edf5"/><polygon points="42 50 32 50 22 50 19 50 19 54 22 54 32 54 42 54 45 54 45 50 42 50" style="fill:#afb4c8"/><path d="M37.97,12.44A5.115,5.115,0,0,1,38,13a5.857,5.857,0,0,1-.81,3,5.989,5.989,0,0,1-10.38,0A5.857,5.857,0,0,1,26,13a5.115,5.115,0,0,1,.03-.56A5.968,5.968,0,0,1,29,7.81a5.961,5.961,0,0,1,6,0A5.968,5.968,0,0,1,37.97,12.44Z" style="fill:#e3fbff"/><path d="M26.81,16H20s0-2.53,6.03-3.56A5.115,5.115,0,0,0,26,13,5.857,5.857,0,0,0,26.81,16Z" style="fill:#fe6a16"/><path d="M37.97,12.44C44,13.47,44,16,44,16H37.19A5.857,5.857,0,0,0,38,13,5.115,5.115,0,0,0,37.97,12.44Z" style="fill:#fe6a16"/><path d="M35,1.38V7.81a5.961,5.961,0,0,0-6,0V1h6Z" style="fill:#fe6a16"/><path d="M25,3.27a11.425,11.425,0,0,1,4-1.89V7.81a5.968,5.968,0,0,0-2.97,4.63C20,13.47,20,16,20,16V13A11.928,11.928,0,0,1,25,3.27Z" style="fill:#ffa426"/><path d="M37.97,12.44A5.968,5.968,0,0,0,35,7.81V1.38a11.425,11.425,0,0,1,4,1.89A11.928,11.928,0,0,1,44,13v3S44,13.47,37.97,12.44Z" style="fill:#ffa426"/><polygon points="15 63 9 63 9 41 18.98 38.9 19 39 19 50 19 63 15 63" style="fill:#4a98f7"/><polygon points="49 63 45 63 45 50 45 39 45.02 38.9 55 41 55 63 49 63" style="fill:#4a98f7"/><polygon points="22 50 22 38.26 25 37.63 25 40 29 44 32 41 32 50 22 50" style="fill:#4a98f7"/><polygon points="39 40 39 37.63 42 38.26 42 50 32 50 32 41 35 44 39 40" style="fill:#4a98f7"/><polygon points="18.98 38.9 9 41 9 45 18.98 42.9 19 43 19 39 18.98 38.9" style="fill:#2864f0"/><polygon points="45.02 38.9 45 39 45 43 45.02 42.9 55 45 55 41 45.02 38.9" style="fill:#2864f0"/><polygon points="29 44 25 40 25 37.63 22 38.26 22 42.26 25 41.63 25 44 29 48 32 45 32 41 29 44" style="fill:#2864f0"/><polygon points="39 37.63 39 40 35 44 32 41 32 45 35 48 39 44 39 41.63 42 42.26 42 38.26 39 37.63" style="fill:#2864f0"/><circle cx="32" cy="13" r="3" style="fill:#19cffc"/><path d="M24,16v9a8.014,8.014,0,0,0,2.34,5.66,7.585,7.585,0,0,0,1.7,1.28A7.843,7.843,0,0,0,32,33a8.013,8.013,0,0,0,8-8V16" style="fill:none;stroke:#000;stroke-linejoin:round;stroke-width:2px"/><path d="M26.03,12.44C20,13.47,20,16,20,16V13a11.928,11.928,0,0,1,5-9.73,11.425,11.425,0,0,1,4-1.89" style="fill:none;stroke:#000;stroke-linejoin:round;stroke-width:2px"/><path d="M35,1.38a11.425,11.425,0,0,1,4,1.89A11.928,11.928,0,0,1,44,13v3s0-2.53-6.03-3.56" style="fill:none;stroke:#000;stroke-linejoin:round;stroke-width:2px"/><path d="M24,24a4,4,0,0,1-4-4V16h6.81" style="fill:none;stroke:#000;stroke-linejoin:round;stroke-width:2px"/><path d="M37.19,16H44v4a4,4,0,0,1-4,4" style="fill:none;stroke:#000;stroke-linejoin:round;stroke-width:2px"/><polyline points="45 63 49 63 55 63 55 41 45.02 38.9 42 38.26 39 37.63 36 37 36 32" style="fill:none;stroke:#000;stroke-linejoin:round;stroke-width:2px"/><polyline points="28 32 28 37 25 37.63 22 38.26 18.98 38.9 9 41 9 63 15 63 19 63" style="fill:none;stroke:#000;stroke-linejoin:round;stroke-width:2px"/><polyline points="28 37 32 41 36 37" style="fill:none;stroke:#000;stroke-linejoin:round;stroke-width:2px"/><polyline points="39 37 39 37.63 39 40 35 44 32 41 29 44 25 40 25 37.63 25 37" style="fill:none;stroke:#000;stroke-linejoin:round;stroke-width:2px"/><line style="fill:none;stroke:#000;stroke-linejoin:round;stroke-width:2px" x1="49" x2="49" y1="63" y2="50"/><line style="fill:none;stroke:#000;stroke-linejoin:round;stroke-width:2px" x1="15" x2="15" y1="63" y2="50"/><polyline points="29 7.81 29 1.38 29 1 35 1 35 1.38 35 7.81" style="fill:none;stroke:#000;stroke-linejoin:round;stroke-width:2px"/><polyline points="39 3 39 3.27 39 9" style="fill:none;stroke:#000;stroke-linejoin:round;stroke-width:2px"/><polyline points="25 3 25 3.27 25 9" style="fill:none;stroke:#000;stroke-linejoin:round;stroke-width:2px"/><path d="M37.97,12.44A5.115,5.115,0,0,1,38,13a5.857,5.857,0,0,1-.81,3,5.989,5.989,0,0,1-10.38,0A5.857,5.857,0,0,1,26,13a5.115,5.115,0,0,1,.03-.56A5.968,5.968,0,0,1,29,7.81a5.961,5.961,0,0,1,6,0A5.968,5.968,0,0,1,37.97,12.44Z" style="fill:none;stroke:#000;stroke-linejoin:round;stroke-width:2px"/><path d="M35,13a3,3,0,0,0-3-3" style="fill:none;stroke:#000;stroke-linejoin:round;stroke-width:2px"/><path d="M29,13a3,3,0,0,0,3,3" style="fill:none;stroke:#000;stroke-linejoin:round;stroke-width:2px"/><polygon points="45 50 42 50 32 50 22 50 19 50 19 63 45 63 45 50" style="fill:none;stroke:#000;stroke-linejoin:round;stroke-width:2px"/><line style="fill:none;stroke:#000;stroke-linejoin:round;stroke-width:2px" x1="19" x2="19" y1="50" y2="39"/><polyline points="22 50 22 38.26 22 38" style="fill:none;stroke:#000;stroke-linejoin:round;stroke-width:2px"/><line style="fill:none;stroke:#000;stroke-linejoin:round;stroke-width:2px" x1="45" x2="45" y1="50" y2="39"/><polyline points="42 50 42 38.26 42 38" style="fill:none;stroke:#000;stroke-linejoin:round;stroke-width:2px"/><line style="fill:none;stroke:#000;stroke-linejoin:round;stroke-width:2px" x1="22" x2="42" y1="59" y2="59"/><line style="fill:none;stroke:#000;stroke-linejoin:round;stroke-width:2px" x1="21" x2="23" y1="53" y2="53"/><line style="fill:none;stroke:#000;stroke-linejoin:round;stroke-width:2px" x1="41" x2="43" y1="53" y2="53"/><line style="fill:none;stroke:#000;stroke-linejoin:round;stroke-width:2px" x1="32" x2="32" y1="41" y2="50"/></g></svg>