<?xml version="1.0" ?><svg viewBox="0 0 64 64" xmlns="http://www.w3.org/2000/svg"><title/><g data-name="28-tom boy" id="_28-tom_boy"><path d="M17,63H13V44.25a3.994,3.994,0,0,1,3.18-3.92l10.15-2.05a1.993,1.993,0,0,0,1.23-.72L30,40V63Z" style="fill:#ff7045"/><path d="M47,63H34V40l2.44-2.44a1.993,1.993,0,0,0,1.23.72l10.15,2.05A3.994,3.994,0,0,1,51,44.25V63Z" style="fill:#ff7045"/><path d="M27.56,37.56a1.993,1.993,0,0,1-1.23.72L16.18,40.33A3.994,3.994,0,0,0,13,44.25v4a3.994,3.994,0,0,1,3.18-3.92l10.15-2.05a1.993,1.993,0,0,0,1.23-.72L30,44V40Z" style="fill:#f92814"/><path d="M47.82,40.33,37.67,38.28a1.993,1.993,0,0,1-1.23-.72L34,40v4l2.44-2.44a1.993,1.993,0,0,0,1.23.72l10.15,2.05A3.994,3.994,0,0,1,51,48.25v-4A3.994,3.994,0,0,0,47.82,40.33Z" style="fill:#f92814"/><rect height="21" style="fill:#e9edf5" width="4" x="30" y="42"/><path d="M32,13H24L20,8c1-1,2.97-3.04,4.06-4A12.007,12.007,0,0,1,39.94,4C41.03,4.96,43,7,44,8l-4,5H32Z" style="fill:#414952"/><polygon points="23 15 23.27 17.98 23 18 20 16 20 8 24 13 23 15" style="fill:#636978"/><polygon points="44 8 44 16 41 18 40.73 17.98 41 15 40 13 44 8" style="fill:#636978"/><path d="M23.36,19l.55,6H23a3,3,0,0,1,0-6Z" style="fill:#ffb680"/><path d="M41,19a3,3,0,0,1,0,6h-.91l.55-6Z" style="fill:#ffb680"/><path d="M36.44,37.56,34,40v2H30V40l-2.44-2.44A1.962,1.962,0,0,0,28,36.31V33l.03-.06a7.964,7.964,0,0,0,7.94,0L36,33v3.31A1.962,1.962,0,0,0,36.44,37.56Z" style="fill:#ffb680"/><path d="M32,37a7.954,7.954,0,0,0,3.97-1.06L36,36V33l-.03-.06a7.964,7.964,0,0,1-7.94,0L28,33v3l.03-.06A7.954,7.954,0,0,0,32,37Z" style="fill:#eb975d"/><path d="M28,36.31a1.962,1.962,0,0,1-.44,1.25L28,38Z" style="fill:#eb975d"/><path d="M36,38l.44-.44A1.962,1.962,0,0,1,36,36.31Z" style="fill:#eb975d"/><path d="M23.91,25l-.55-6-.09-1.02L23,15l1-2H40l1,2-.27,2.98L40.64,19l-.55,6L40,26a8.014,8.014,0,0,1-2.34,5.66,7.838,7.838,0,0,1-1.69,1.28A8,8,0,0,1,24,26Z" style="fill:#ffdaaa"/><polygon points="23.306 18.388 24 17 28 17 32 17 36 17 40 17 40.694 18.388 40.73 17.98 41 15 40 13 36 13 32 13 28 13 24 13 23 15 23.27 17.98 23.306 18.388" style="fill:#ffb680"/><path d="M24,13,20,8c1-1,2.97-3.04,4.06-4A12.007,12.007,0,0,1,39.94,4C41.03,4.96,43,7,44,8l-4,5H24Z" style="fill:none;stroke:#000;stroke-linejoin:round;stroke-width:2px"/><polyline points="44 8 44 16 41 18" style="fill:none;stroke:#000;stroke-linejoin:round;stroke-width:2px"/><polyline points="20 8 20 16 23 18" style="fill:none;stroke:#000;stroke-linejoin:round;stroke-width:2px"/><line style="fill:none;stroke:#000;stroke-linejoin:round;stroke-width:2px" x1="32" x2="32" y1="13" y2="5"/><line style="fill:none;stroke:#000;stroke-linejoin:round;stroke-width:2px" x1="36" x2="39" y1="13" y2="8"/><line style="fill:none;stroke:#000;stroke-linejoin:round;stroke-width:2px" x1="28" x2="25" y1="13" y2="8"/><path d="M28,33v3.31a1.962,1.962,0,0,1-.44,1.25,1.993,1.993,0,0,1-1.23.72L16.18,40.33A3.994,3.994,0,0,0,13,44.25V63H51V44.25a3.994,3.994,0,0,0-3.18-3.92L37.67,38.28a1.993,1.993,0,0,1-1.23-.72A1.962,1.962,0,0,1,36,36.31V33" style="fill:none;stroke:#000;stroke-linejoin:round;stroke-width:2px"/><path d="M19,48v5s-2,3-2,10" style="fill:none;stroke:#000;stroke-linejoin:round;stroke-width:2px"/><path d="M45,48v5s2,3,2,10" style="fill:none;stroke:#000;stroke-linejoin:round;stroke-width:2px"/><path d="M24,13l-1,2,.27,2.98L23.36,19l.55,6L24,26a7.992,7.992,0,0,0,11.97,6.94,7.838,7.838,0,0,0,1.69-1.28A8.014,8.014,0,0,0,40,26l.09-1,.55-6,.09-1.02L41,15l-1-2" style="fill:none;stroke:#000;stroke-linejoin:round;stroke-width:2px"/><path d="M40,19h1a3,3,0,0,1,0,6H40" style="fill:none;stroke:#000;stroke-linejoin:round;stroke-width:2px"/><path d="M24,19H23a3,3,0,0,0,0,6h1" style="fill:none;stroke:#000;stroke-linejoin:round;stroke-width:2px"/><polyline points="27 37 27.56 37.56 30 40 30 42 30 63" style="fill:none;stroke:#000;stroke-linejoin:round;stroke-width:2px"/><polyline points="37 37 36.44 37.56 34 40 34 42 34 63" style="fill:none;stroke:#000;stroke-linejoin:round;stroke-width:2px"/><line style="fill:none;stroke:#000;stroke-linejoin:round;stroke-width:2px" x1="30" x2="34" y1="42" y2="42"/></g></svg>