<?xml version="1.0" ?><svg viewBox="0 0 64 64" xmlns="http://www.w3.org/2000/svg"><title/><g data-name="58-woman" id="_58-woman"><circle cx="21" cy="30" r="2" style="fill:#b25e1e"/><path d="M47,63H13V44.25a3.994,3.994,0,0,1,3.18-3.92l10.15-2.05A1.989,1.989,0,0,0,28,36.31V36s0,4,4,4,4-4,4-4v.31a1.989,1.989,0,0,0,1.67,1.97l10.15,2.05A3.994,3.994,0,0,1,51,44.25V63Z" style="fill:#b25e1e"/><path d="M47.82,40.33,37.67,38.28A1.989,1.989,0,0,1,36,36.31V36s0,4-4,4-4-4-4-4v.31a1.989,1.989,0,0,1-1.67,1.97L16.18,40.33A3.994,3.994,0,0,0,13,44.25v4a3.994,3.994,0,0,1,3.18-3.92l10.15-2.05A1.989,1.989,0,0,0,28,40.31V40s0,4,4,4,4-4,4-4v.31a1.989,1.989,0,0,0,1.67,1.97l10.15,2.05A3.994,3.994,0,0,1,51,48.25v-4A3.994,3.994,0,0,0,47.82,40.33Z" style="fill:#d1813b"/><path d="M31,15H23l.36,4H23a3,3,0,0,0-3,3H18V15a14,14,0,0,1,28,0V29c0,5-6,6-6,6V26l1-11H39l-3-3-3,3Z" style="fill:#414952"/><path d="M32,1A13.963,13.963,0,0,0,20.94,6.44,13.982,13.982,0,0,1,43.5,17.5v14a5.255,5.255,0,0,1-.55,2.4A5.516,5.516,0,0,0,46,29V15A14,14,0,0,0,32,1Z" style="fill:#636978"/><path d="M23.91,25l-.55-6L23,15H33l3-3,3,3h2L40,26a7.992,7.992,0,0,1-11.97,6.94,7.838,7.838,0,0,1-1.69-1.28A8.014,8.014,0,0,1,24,26Z" style="fill:#ffdaaa"/><polygon points="27 19 31 19 33 19 36 16 39 19 40.636 19 41 15 39 15 36 12 33 15 31 15 27 15 23 15 23.36 19 27 19" style="fill:#ffb680"/><path d="M36,33v3s0,4-4,4-4-4-4-4V33l.03-.06a7.964,7.964,0,0,0,7.94,0Z" style="fill:#ffb680"/><path d="M35.97,32.94a7.964,7.964,0,0,1-7.94,0L28,33v3l.03-.06a7.964,7.964,0,0,0,7.94,0L36,36V33Z" style="fill:#eb975d"/><path d="M21,24.23A2.94,2.94,0,0,1,20,22a3,3,0,0,1,3-3h.36l.55,6H23A2.965,2.965,0,0,1,21,24.23Z" style="fill:#ffb680"/><path d="M41,15,40,26a7.992,7.992,0,0,1-11.97,6.94,7.838,7.838,0,0,1-1.69-1.28A8.014,8.014,0,0,1,24,26l-.09-1-.55-6L23,15" style="fill:none;stroke:#000;stroke-linejoin:round;stroke-width:2px"/><path d="M28,33v3.31a1.989,1.989,0,0,1-1.67,1.97L16.18,40.33A3.994,3.994,0,0,0,13,44.25V63H51V44.25a3.994,3.994,0,0,0-3.18-3.92L37.67,38.28A1.989,1.989,0,0,1,36,36.31V33" style="fill:none;stroke:#000;stroke-linejoin:round;stroke-width:2px"/><path d="M20,22H18V15a14,14,0,0,1,28,0V29c0,5-6,6-6,6V26" style="fill:none;stroke:#000;stroke-linejoin:round;stroke-width:2px"/><path d="M24,19H23a3,3,0,0,0-3,3,3.011,3.011,0,0,0,3,3h1" style="fill:none;stroke:#000;stroke-linejoin:round;stroke-width:2px"/><path d="M45,48v5s2,3,2,10" style="fill:none;stroke:#000;stroke-linejoin:round;stroke-width:2px"/><path d="M19,48v5s-2,3-2,10" style="fill:none;stroke:#000;stroke-linejoin:round;stroke-width:2px"/><path d="M36,36s0,4-4,4-4-4-4-4" style="fill:none;stroke:#000;stroke-linejoin:round;stroke-width:2px"/><polyline points="21 15 23 15 27 15 31 15 33 15 36 12 39 15 41 15 43 15" style="fill:none;stroke:#000;stroke-linejoin:round;stroke-width:2px"/><path d="M23,15s0-5,2-6" style="fill:none;stroke:#000;stroke-linejoin:round;stroke-width:2px"/><path d="M27,15s0-5,2-6" style="fill:none;stroke:#000;stroke-linejoin:round;stroke-width:2px"/><path d="M31,15s0-5,2-6" style="fill:none;stroke:#000;stroke-linejoin:round;stroke-width:2px"/><polyline points="21 24 21 24.23 21 28" style="fill:none;stroke:#000;stroke-linejoin:round;stroke-width:2px"/><circle cx="21" cy="30" r="2" style="fill:none;stroke:#000;stroke-linejoin:round;stroke-width:2px"/><line style="fill:none;stroke:#000;stroke-linejoin:round;stroke-width:2px" x1="32" x2="32" y1="40" y2="43"/></g></svg>