<?xml version="1.0" ?><svg viewBox="0 0 64 64" xmlns="http://www.w3.org/2000/svg"><title/><g data-name="04-man" id="_04-man"><polygon points="25 51 25 56 22 58 19 56 19 51 25 51" style="fill:#7e8596"/><polygon points="45 51 45 56 42 58 39 56 39 51 45 51" style="fill:#7e8596"/><polygon points="35 44 33 46 31 46 29 44 32 41 35 44" style="fill:#f5cd62"/><polygon points="33 46 35 63 29 63 31 46 33 46" style="fill:#ffa426"/><polygon points="32 41 29 44 25 40 25 37.63 28 37 32 41" style="fill:#7e8596"/><polygon points="39 37.63 39 40 35 44 32 41 36 37 39 37.63" style="fill:#7e8596"/><path d="M31,46,29,63H9V41l16-3.37V40l4,4ZM25,56V51H19v5l3,2Z" style="fill:#e9edf5"/><path d="M49,63H35L33,46l2-2,4-4V37.63L55,41V63Zm-4-7V51H39v5l3,2Z" style="fill:#e9edf5"/><polygon points="25 43 29 47 30.684 48.684 31 46 29 44 25 40 25 37.63 9 41 9 44 25 40.63 25 43" style="fill:#afb4c8"/><polygon points="22 61 25 59 25 56 22 58 19 56 19 59 22 61" style="fill:#afb4c8"/><polygon points="42 61 45 59 45 56 42 58 39 56 39 59 42 61" style="fill:#afb4c8"/><polygon points="39 37.63 39 40 35 44 33 46 33.316 48.684 35 47 39 43 39 40.63 55 44 55 41 39 37.63" style="fill:#afb4c8"/><polygon points="36 33 36 37 32 41 28 37 28 33 36 33" style="fill:#ffb680"/><rect height="3" style="fill:#eb975d" width="8" x="28" y="33"/><path d="M24,19v5a4,4,0,1,1,0-8Z" style="fill:#eb975d"/><path d="M42.83,17.17A4,4,0,0,1,40,24V16A4.025,4.025,0,0,1,42.83,17.17Z" style="fill:#eb975d"/><path d="M40,16v3l-3,3v1a2.006,2.006,0,0,1-2,2H29a2.006,2.006,0,0,1-2-2V22l-3-3V11l2,2,2-2,2,2,2-2,2,2,2-2,2,2,2-2Z" style="fill:#ffdaaa"/><polygon points="38 13 36 11 34 13 32 11 30 13 28 11 26 13 24 11 24 14 26 16 28 14 30 16 32 14 34 16 36 14 38 16 40 14 40 11 38 13" style="fill:#ffb680"/><path d="M40,19V29a4,4,0,0,1-4,4H28a4,4,0,0,1-4-4V19l3,3v1a2.006,2.006,0,0,0,2,2h6a2.006,2.006,0,0,0,2-2V22Z" style="fill:#e9edf5"/><path d="M36,30H28a4,4,0,0,1-4-4v3a4,4,0,0,0,4,4h8a4,4,0,0,0,4-4V26A4,4,0,0,1,36,30Z" style="fill:#afb4c8"/><path d="M44,16l-1,1-.17.17A4.025,4.025,0,0,0,40,16V11l-2,2-2-2-2,2-2-2-2,2-2-2-2,2-2-2v5a4.025,4.025,0,0,0-2.83,1.17L21,17l-1-1V13a12,12,0,0,1,24,0Z" style="fill:#e9edf5"/><path d="M32,1a11.986,11.986,0,0,0-2,.18,11.983,11.983,0,0,1,9.844,9.976L40,11v5a4.025,4.025,0,0,1,2.83,1.17L43,17l1-1V13A12,12,0,0,0,32,1Z" style="fill:#afb4c8"/><path d="M40,24a4,4,0,1,0,0-8" style="fill:none;stroke:#000;stroke-linejoin:round;stroke-width:2px"/><path d="M24,16a4,4,0,0,0,0,8" style="fill:none;stroke:#000;stroke-linejoin:round;stroke-width:2px"/><polyline points="28 33 28 37 25 37.63 9 41 9 63 15 63 29 63 35 63 49 63 55 63 55 41 39 37.63 36 37 36 33" style="fill:none;stroke:#000;stroke-linejoin:round;stroke-width:2px"/><polyline points="28 37 32 41 36 37" style="fill:none;stroke:#000;stroke-linejoin:round;stroke-width:2px"/><polyline points="39 37 39 37.63 39 40 35 44 32 41 29 44 25 40 25 37.63 25 37" style="fill:none;stroke:#000;stroke-linejoin:round;stroke-width:2px"/><polyline points="29 44 31 46 33 46 35 44" style="fill:none;stroke:#000;stroke-linejoin:round;stroke-width:2px"/><line style="fill:none;stroke:#000;stroke-linejoin:round;stroke-width:2px" x1="31" x2="29" y1="46" y2="63"/><line style="fill:none;stroke:#000;stroke-linejoin:round;stroke-width:2px" x1="33" x2="35" y1="46" y2="63"/><line style="fill:none;stroke:#000;stroke-linejoin:round;stroke-width:2px" x1="49" x2="49" y1="63" y2="50"/><line style="fill:none;stroke:#000;stroke-linejoin:round;stroke-width:2px" x1="15" x2="15" y1="63" y2="50"/><path d="M24,16V11l2,2,2-2,2,2,2-2,2,2,2-2,2,2,2-2V29a4,4,0,0,1-4,4H28a4,4,0,0,1-4-4V16Z" style="fill:none;stroke:#000;stroke-linejoin:round;stroke-width:2px"/><path d="M24,19l3,3v1a2.006,2.006,0,0,0,2,2h6a2.006,2.006,0,0,0,2-2V22l3-3" style="fill:none;stroke:#000;stroke-linejoin:round;stroke-width:2px"/><path d="M43,17l1-1V13a12,12,0,0,0-24,0v3l1,1" style="fill:none;stroke:#000;stroke-linejoin:round;stroke-width:2px"/><polygon points="39 51 45 51 45 56 42 58 39 56 39 51" style="fill:none;stroke:#000;stroke-linejoin:round;stroke-width:2px"/><polygon points="19 51 25 51 25 56 22 58 19 56 19 51" style="fill:none;stroke:#000;stroke-linejoin:round;stroke-width:2px"/></g></svg>