<?xml version="1.0" ?><svg viewBox="0 0 64 64" xmlns="http://www.w3.org/2000/svg"><title/><g data-name="15-Dentist" id="_15-Dentist"><circle cx="32" cy="7" r="6" style="fill:#e3fbff"/><path d="M44,17v3a4,4,0,0,1-4,4V17Z" style="fill:#eb975d"/><path d="M24,21v3a4,4,0,0,1-4-4V17h4Z" style="fill:#eb975d"/><path d="M40,17v4a20.687,20.687,0,0,1-8,2,20.687,20.687,0,0,1-8-2V17Z" style="fill:#ffdaaa"/><rect height="3" style="fill:#ffb680" width="16" x="24" y="17"/><polygon points="49 63 42 63 42 44 39 41 32 41 36 37 55 41 55 63 49 63" style="fill:#0f9887"/><polygon points="39.5 40.5 55 43.763 55 41 36 37 32 41 39 41 39.5 40.5" style="fill:#006357"/><polygon points="45.5 47.5 42.5 44.5 42 44.5 42 63 45.5 63 45.5 47.5" style="fill:#006357"/><polygon points="15 63 9 63 9 41 28 37 32 41 39 41 42 44 42 63 15 63" style="fill:#06ccab"/><polygon points="39 41 32 41 28 37 9 41 9 44.158 24 41 28 45 35 45 38 48 38 63 42 63 42 44 39 41" style="fill:#0f9887"/><path d="M36,32v5l-4,4-4-4V32l.03-.06a7.964,7.964,0,0,0,7.94,0Z" style="fill:#ffb680"/><path d="M35.97,31.94a7.964,7.964,0,0,1-7.94,0L28,32v3l.03-.06a7.964,7.964,0,0,0,7.94,0L36,35V32Z" style="fill:#eb975d"/><polygon points="44 13 44 17 40 17 24 17 20 17 20 13 21 13 32 13 43 13 44 13" style="fill:#006357"/><path d="M32,1a6,6,0,0,0,0,12H21V12A10.994,10.994,0,0,1,32,1Z" style="fill:#06ccab"/><path d="M32,1A10.994,10.994,0,0,1,43,12v1H32A6,6,0,0,0,32,1Z" style="fill:#06ccab"/><path d="M40,24v1a7.992,7.992,0,0,1-11.97,6.94,7.838,7.838,0,0,1-1.69-1.28A8.014,8.014,0,0,1,24,25V21a20.687,20.687,0,0,0,8,2,20.687,20.687,0,0,0,8-2Z" style="fill:#06ccab"/><path d="M32,23a20.687,20.687,0,0,1-8-2v3a20.687,20.687,0,0,0,8,2,20.687,20.687,0,0,0,8-2V21A20.687,20.687,0,0,1,32,23Z" style="fill:#006357"/><circle cx="32" cy="7" r="3" style="fill:#19cffc"/><path d="M40,17v8a7.992,7.992,0,0,1-11.97,6.94,7.838,7.838,0,0,1-1.69-1.28A8.014,8.014,0,0,1,24,25V17" style="fill:none;stroke:#000;stroke-linejoin:round;stroke-width:2px"/><path d="M24,24a4,4,0,0,1-4-4V17H44v3a4,4,0,0,1-4,4" style="fill:none;stroke:#000;stroke-linejoin:round;stroke-width:2px"/><polyline points="28 32 28 37 9 41 9 63 15 63 42 63 49 63 55 63 55 41 36 37 36 32" style="fill:none;stroke:#000;stroke-linejoin:round;stroke-width:2px"/><line style="fill:none;stroke:#000;stroke-linejoin:round;stroke-width:2px" x1="15" x2="15" y1="63" y2="50"/><line style="fill:none;stroke:#000;stroke-linejoin:round;stroke-width:2px" x1="49" x2="49" y1="63" y2="50"/><polyline points="28 37 32 41 36 37" style="fill:none;stroke:#000;stroke-linejoin:round;stroke-width:2px"/><polyline points="32 41 39 41 42 44 42 63" style="fill:none;stroke:#000;stroke-linejoin:round;stroke-width:2px"/><path d="M24,21a20.687,20.687,0,0,0,8,2,20.687,20.687,0,0,0,8-2" style="fill:none;stroke:#000;stroke-linejoin:round;stroke-width:2px"/><polyline points="43 13 44 13 44 17" style="fill:none;stroke:#000;stroke-linejoin:round;stroke-width:2px"/><polyline points="20 17 20 13 21 13" style="fill:none;stroke:#000;stroke-linejoin:round;stroke-width:2px"/><path d="M32,1A10.994,10.994,0,0,0,21,12v1H43V12A10.994,10.994,0,0,0,32,1Z" style="fill:none;stroke:#000;stroke-linejoin:round;stroke-width:2px"/><circle cx="32" cy="7" r="6" style="fill:none;stroke:#000;stroke-linejoin:round;stroke-width:2px"/><path d="M35,7a3,3,0,0,0-3-3" style="fill:none;stroke:#000;stroke-linejoin:round;stroke-width:2px"/><path d="M29,7a3,3,0,0,0,3,3" style="fill:none;stroke:#000;stroke-linejoin:round;stroke-width:2px"/></g></svg>