<?xml version="1.0" ?><svg viewBox="0 0 64 64" xmlns="http://www.w3.org/2000/svg"><title/><g data-name="40-Dealer" id="_40-Dealer"><path d="M22.99,14.91,23,15l.36,4H23a3,3,0,0,0,0,6h.91L24,26a7.946,7.946,0,0,0,2.82,6.09L21,35a70.377,70.377,0,0,1-3-20,14,14,0,0,1,28,0,70.377,70.377,0,0,1-3,20l-5.82-2.91a4.907,4.907,0,0,0,.48-.43A8.014,8.014,0,0,0,40,26l.09-1H41a3,3,0,0,0,0-6h-.36L41,15s-1.86,0-4.23-.24c-3.07-.32-6.98-1.04-8.78-2.69C27.94,12.48,27.48,14.45,22.99,14.91Z" style="fill:#b25e1e"/><path d="M40.09,29H41a2.99,2.99,0,0,0,2.224-5A2.982,2.982,0,0,1,41,25h-.91L40,26a8.014,8.014,0,0,1-2.34,5.66,4.907,4.907,0,0,1-.48.43l2.163,1.081A7.977,7.977,0,0,0,40,30Z" style="fill:#704021"/><path d="M32,5A14,14,0,0,1,45.934,17.7c.039-.886.066-1.783.066-2.7a14,14,0,0,0-28,0c0,.918.027,1.815.066,2.7A14,14,0,0,1,32,5Z" style="fill:#d1813b"/><path d="M41,19s-.131,0-.36,0v0Z" style="fill:#d1813b"/><path d="M23,19h.36l-.012-.136c-.12.015-.232.033-.358.046Z" style="fill:#d1813b"/><path d="M24,26l-.09-1H23a2.982,2.982,0,0,1-2.224-1A2.99,2.99,0,0,0,23,29h.91L24,30a7.957,7.957,0,0,0,.662,3.169L26.82,32.09A7.946,7.946,0,0,1,24,26Z" style="fill:#704021"/><path d="M30,20v1a2.653,2.653,0,0,1-.16.94,2.992,2.992,0,0,1-5.82-.63c-.01-.1-.02-.21-.02-.31V20Z" style="fill:#19cffc"/><path d="M40,20v1c0,.1-.01.21-.02.31a2.992,2.992,0,0,1-5.82.63A2.653,2.653,0,0,1,34,21V20Z" style="fill:#19cffc"/><path d="M32,41l-2,2-4-4v-.65l.33-.07a1.987,1.987,0,0,0,1.56-1.31L28,37Z" style="fill:#afb4c8"/><path d="M38,38.35V39l-4,4-2-2,4-4,.11-.03a1.987,1.987,0,0,0,1.56,1.31Z" style="fill:#afb4c8"/><polygon points="34 43 33 45 31 45 30 43 32 41 34 43" style="fill:#19cffc"/><path d="M35,52l.06.1a5.652,5.652,0,0,1-6.12,0L29,52l2-7h2Z" style="fill:#19cffc"/><path d="M32,53V63H17c0-7,2-10,2-10,3,0,3-1,3-1,0-3.42-1.46-10.48-1.88-12.47l3.9-.78c.1,2.51.76,10.63,4.92,13.35A5.412,5.412,0,0,0,32,53Z" style="fill:#414952"/><path d="M47,63H32V53a5.412,5.412,0,0,0,3.06-.9c4.16-2.72,4.82-10.84,4.92-13.35l3.9.78C43.46,41.52,42,48.58,42,52c0,0,0,1,3,1C45,53,47,56,47,63Z" style="fill:#414952"/><path d="M45,53c-3,0-3-1-3-1,0-3.42,1.46-10.48,1.88-12.47l3.94.8A3.994,3.994,0,0,1,51,44.25V63H47C47,56,45,53,45,53Z" style="fill:#e9edf5"/><path d="M41,19a3,3,0,0,1,0,6h-.91l.33-3.65L40.64,19Z" style="fill:#ffb680"/><path d="M23.36,19,23,15l-.01-.09c4.49-.46,4.95-2.43,5-2.84,1.8,1.65,5.71,2.37,8.78,2.69C39.14,15,41,15,41,15l-.36,4-.22,2.35-.44-.04c.01-.1.02-.21.02-.31V20H34v1a2.653,2.653,0,0,0,.16.94L34,22H30l-.16-.06A2.653,2.653,0,0,0,30,21V20H24v1c0,.1.01.21.02.31l-.44.04Z" style="fill:#ffb680"/><path d="M37.18,32.09a7.311,7.311,0,0,1-1.21.85,7.964,7.964,0,0,1-7.94,0,7.311,7.311,0,0,1-1.21-.85A7.946,7.946,0,0,1,24,26l-.09-1-.33-3.65.44-.04a2.992,2.992,0,0,0,5.82.63L30,22h4l.16-.06a2.992,2.992,0,0,0,5.82-.63l.44.04L40.09,25,40,26a8.014,8.014,0,0,1-2.34,5.66A4.907,4.907,0,0,1,37.18,32.09Z" style="fill:#ffdaaa"/><path d="M38,38.35l1.98.4c-.1,2.51-.76,10.63-4.92,13.35L35,52l-2-7,1-2,4-4Z" style="fill:#e9edf5"/><path d="M36.11,36.97,36,37l-4,4-4-4-.11-.03a2.076,2.076,0,0,0,.11-.66V33l.03-.06a7.964,7.964,0,0,0,7.94,0L36,33v3.31A2.076,2.076,0,0,0,36.11,36.97Z" style="fill:#ffb680"/><path d="M30,43l1,2-2,7-.06.1c-4.16-2.72-4.82-10.84-4.92-13.35l1.98-.4V39Z" style="fill:#e9edf5"/><path d="M23.58,21.35,23.91,25H23a3,3,0,0,1,0-6h.36Z" style="fill:#ffb680"/><path d="M19,53s-2,3-2,10H13V44.25a3.994,3.994,0,0,1,3.18-3.92l3.94-.8C20.54,41.52,22,48.58,22,52,22,52,22,53,19,53Z" style="fill:#e9edf5"/><path d="M47.82,40.33l-3.94-.8C43.46,41.52,42,48.58,42,52a.646.646,0,0,0,.293.438C42.742,49,43.578,44.96,43.88,43.53l3.94.8A3.994,3.994,0,0,1,51,48.25v-4A3.994,3.994,0,0,0,47.82,40.33Z" style="fill:#afb4c8"/><path d="M34,47l4-4v-.65l1.59.321a34.987,34.987,0,0,0,.39-3.921L38,38.35V39l-4,4-1,2,.727,2.545Z" style="fill:#afb4c8"/><path d="M26,42.35V43l4,4,.273.545L31,45l-1-2-4-4v-.65l-1.98.4a34.987,34.987,0,0,0,.39,3.921Z" style="fill:#afb4c8"/><path d="M16.18,44.33l3.94-.8c.3,1.43,1.138,5.474,1.587,8.908A.646.646,0,0,0,22,52c0-3.42-1.46-10.48-1.88-12.47l-3.94.8A3.994,3.994,0,0,0,13,44.25v4A3.994,3.994,0,0,1,16.18,44.33Z" style="fill:#afb4c8"/><path d="M27.99,12.06A2.751,2.751,0,0,1,27,10V8" style="fill:none;stroke:#000;stroke-linejoin:round;stroke-width:2px"/><path d="M23,15l.36,4,.22,2.35L23.91,25,24,26a7.946,7.946,0,0,0,2.82,6.09,7.311,7.311,0,0,0,1.21.85,7.964,7.964,0,0,0,7.94,0,7.311,7.311,0,0,0,1.21-.85,4.907,4.907,0,0,0,.48-.43A8.014,8.014,0,0,0,40,26l.09-1,.33-3.65L40.64,19,41,15s-1.86,0-4.23-.24c-3.07-.32-6.98-1.04-8.78-2.69" style="fill:none;stroke:#000;stroke-linejoin:round;stroke-width:2px"/><path d="M36,33v3.31a2.076,2.076,0,0,0,.11.66,1.987,1.987,0,0,0,1.56,1.31l.33.07,1.98.4,3.9.78,3.94.8A3.994,3.994,0,0,1,51,44.25V63H13V44.25a3.994,3.994,0,0,1,3.18-3.92l3.94-.8,3.9-.78,1.98-.4.33-.07a1.987,1.987,0,0,0,1.56-1.31,2.076,2.076,0,0,0,.11-.66V33" style="fill:none;stroke:#000;stroke-linejoin:round;stroke-width:2px"/><path d="M37,32l.18.09L43,35a70.377,70.377,0,0,0,3-20,14,14,0,0,0-28,0,70.377,70.377,0,0,0,3,20l5.82-2.91L27,32" style="fill:none;stroke:#000;stroke-linejoin:round;stroke-width:2px"/><path d="M24,19H23a3,3,0,0,0,0,6h1" style="fill:none;stroke:#000;stroke-linejoin:round;stroke-width:2px"/><path d="M40,19h1a3,3,0,0,1,0,6H40" style="fill:none;stroke:#000;stroke-linejoin:round;stroke-width:2px"/><path d="M45,50v3s2,3,2,10" style="fill:none;stroke:#000;stroke-linejoin:round;stroke-width:2px"/><path d="M19,50v3s-2,3-2,10" style="fill:none;stroke:#000;stroke-linejoin:round;stroke-width:2px"/><path d="M34.16,21.94a2.992,2.992,0,0,0,5.82-.63c.01-.1.02-.21.02-.31V20H34v1A2.653,2.653,0,0,0,34.16,21.94Z" style="fill:none;stroke:#000;stroke-linejoin:round;stroke-width:2px"/><path d="M24.02,21.31a2.992,2.992,0,0,0,5.82.63A2.653,2.653,0,0,0,30,21V20H24v1C24,21.1,24.01,21.21,24.02,21.31Z" style="fill:none;stroke:#000;stroke-linejoin:round;stroke-width:2px"/><line style="fill:none;stroke:#000;stroke-linejoin:round;stroke-width:2px" x1="34" x2="30" y1="22" y2="22"/><path d="M28,12a.28.28,0,0,1-.01.06s.01.01,0,.01c-.05.41-.51,2.38-5,2.84A19.778,19.778,0,0,1,21,15" style="fill:none;stroke:#000;stroke-linejoin:round;stroke-width:2px"/><polyline points="28 37 32 41 36 37" style="fill:none;stroke:#000;stroke-linejoin:round;stroke-width:2px"/><polyline points="38 38 38 38.35 38 39 34 43 32 41 30 43 26 39 26 38.35 26 38" style="fill:none;stroke:#000;stroke-linejoin:round;stroke-width:2px"/><polyline points="30 43 31 45 33 45 34 43" style="fill:none;stroke:#000;stroke-linejoin:round;stroke-width:2px"/><path d="M24,38s0,.27.02.75c.1,2.51.76,10.63,4.92,13.35a5.652,5.652,0,0,0,6.12,0c4.16-2.72,4.82-10.84,4.92-13.35C40,38.27,40,38,40,38" style="fill:none;stroke:#000;stroke-linejoin:round;stroke-width:2px"/><line style="fill:none;stroke:#000;stroke-linejoin:round;stroke-width:2px" x1="31" x2="29" y1="45" y2="52"/><line style="fill:none;stroke:#000;stroke-linejoin:round;stroke-width:2px" x1="33" x2="35" y1="45" y2="52"/><line style="fill:none;stroke:#000;stroke-linejoin:round;stroke-width:2px" x1="32" x2="32" y1="53" y2="63"/><path d="M44,39s-.04.19-.12.53C43.46,41.52,42,48.58,42,52c0,0,0,1,3,1" style="fill:none;stroke:#000;stroke-linejoin:round;stroke-width:2px"/><path d="M20,39s.04.19.12.53C20.54,41.52,22,48.58,22,52c0,0,0,1-3,1" style="fill:none;stroke:#000;stroke-linejoin:round;stroke-width:2px"/><line style="fill:none;stroke:#000;stroke-linejoin:round;stroke-width:2px" x1="27" x2="29" y1="56" y2="56"/><line style="fill:none;stroke:#000;stroke-linejoin:round;stroke-width:2px" x1="35" x2="37" y1="56" y2="56"/><line style="fill:none;stroke:#000;stroke-linejoin:round;stroke-width:2px" x1="35" x2="37" y1="60" y2="60"/><line style="fill:none;stroke:#000;stroke-linejoin:round;stroke-width:2px" x1="27" x2="29" y1="60" y2="60"/><path d="M32,9s-2,2,1,5" style="fill:none;stroke:#000;stroke-linejoin:round;stroke-width:2px"/><path d="M36,10s-1.89,1.89.77,4.76c.07.08.15.16.23.24" style="fill:none;stroke:#000;stroke-linejoin:round;stroke-width:2px"/><path d="M41,15a7.809,7.809,0,0,0-2-5" style="fill:none;stroke:#000;stroke-linejoin:round;stroke-width:2px"/></g></svg>