<?xml version="1.0" ?><svg viewBox="0 0 64 64" xmlns="http://www.w3.org/2000/svg"><title/><g data-name="25-Sailor" id="_25-Sailor"><path d="M42,5V8.73C38.14,7.69,35.44,4,32,4c-4.13,0-6.9,3.42-10,4.6V5a4,4,0,0,1,4-4H38A4,4,0,0,1,42,5Z" style="fill:#7e8596"/><path d="M34.3,50.51,37,55l-5,5V51h1A1.94,1.94,0,0,0,34.3,50.51Z" style="fill:#7e8596"/><path d="M32,51v7l-5-5,2.59-2.59A1.955,1.955,0,0,0,31,51Z" style="fill:#7e8596"/><path d="M34.3,50.51A1.94,1.94,0,0,1,33,51H31a2,2,0,0,1,0-4h2a2.006,2.006,0,0,1,2,2,1.955,1.955,0,0,1-.59,1.41A1,1,0,0,1,34.3,50.51Z" style="fill:#afb4c8"/><path d="M41.78,38.22l5.21,1.09C46.75,49,35,49,35,49a2.006,2.006,0,0,0-2-2H32l8-4-1-2Z" style="fill:#2864f0"/><path d="M32,47H31a2.015,2.015,0,0,0-2,2s-11.75,0-11.99-9.69l5.21-1.09L25,41l-1,2Z" style="fill:#2864f0"/><path d="M49,63H32V60l5-5-2.7-4.49a1,1,0,0,0,.11-.1A1.955,1.955,0,0,0,35,49s11.75,0,11.99-9.69L55,41V63Z" style="fill:#e9edf5"/><path d="M42,8.73A7.665,7.665,0,0,0,44,9l-2,7H22L20,9a5.487,5.487,0,0,0,2-.4C25.1,7.42,27.87,4,32,4,35.44,4,38.14,7.69,42,8.73Z" style="fill:#e9edf5"/><path d="M22,11.6C25.1,10.42,27.87,7,32,7c3.44,0,6.14,3.69,10,4.73a8.03,8.03,0,0,0,1.16.212L44,9a7.665,7.665,0,0,1-2-.27C38.14,7.69,35.44,4,32,4c-4.13,0-6.9,3.42-10,4.6A5.487,5.487,0,0,1,20,9l.832,2.913A5.877,5.877,0,0,0,22,11.6Z" style="fill:#fff"/><path d="M40,16a4,4,0,0,1,0,8Z" style="fill:#eb975d"/><polygon points="41.78 38.22 39 41 40 43 32 47 35.17 39.07 36 37 41.78 38.22" style="fill:#4a98f7"/><path d="M40,24v1a7.992,7.992,0,0,1-11.97,6.94,7.838,7.838,0,0,1-1.69-1.28A8.014,8.014,0,0,1,24,25V16H40Z" style="fill:#ffdaaa"/><rect height="3" style="fill:#ffb680" width="16" x="24" y="16"/><path d="M36,32v5l-.83,2.07L35,39H29l-.17.07L28,37V32l.03-.06a7.964,7.964,0,0,0,7.94,0Z" style="fill:#ffb680"/><path d="M35.97,31.94a7.964,7.964,0,0,1-7.94,0L28,32v3l.03-.06a7.964,7.964,0,0,0,7.94,0L36,35V32Z" style="fill:#eb975d"/><path d="M15,63H9V41l8.01-1.69C17.25,49,29,49,29,49a1.955,1.955,0,0,0,.59,1.41L27,53l5,5v5Z" style="fill:#e9edf5"/><polygon points="28.83 39.07 32 47 24 43 25 41 22.22 38.22 28 37 28.83 39.07" style="fill:#4a98f7"/><path d="M24,16v8a4,4,0,0,1,0-8Z" style="fill:#eb975d"/><polygon points="35.17 39.07 32 47 28.83 39.07 29 39 35 39 35.17 39.07" style="fill:#e9edf5"/><path d="M40,16v9a7.992,7.992,0,0,1-11.97,6.94,7.838,7.838,0,0,1-1.69-1.28A8.014,8.014,0,0,1,24,25V16" style="fill:none;stroke:#000;stroke-linejoin:round;stroke-width:2px"/><path d="M40,24a4,4,0,0,0,0-8" style="fill:none;stroke:#000;stroke-linejoin:round;stroke-width:2px"/><path d="M24,16a4,4,0,0,0,0,8" style="fill:none;stroke:#000;stroke-linejoin:round;stroke-width:2px"/><polyline points="28 32 28 37 22.22 38.22 17.01 39.31 9 41 9 63 15 63 32 63 49 63 55 63 55 41 46.99 39.31 41.78 38.22 36 37 36 32" style="fill:none;stroke:#000;stroke-linejoin:round;stroke-width:2px"/><line style="fill:none;stroke:#000;stroke-linejoin:round;stroke-width:2px" x1="15" x2="15" y1="63" y2="50"/><line style="fill:none;stroke:#000;stroke-linejoin:round;stroke-width:2px" x1="49" x2="49" y1="63" y2="50"/><path d="M24,16H22L20,9a5.487,5.487,0,0,0,2-.4C25.1,7.42,27.87,4,32,4c3.44,0,6.14,3.69,10,4.73A7.665,7.665,0,0,0,44,9l-2,7H24Z" style="fill:none;stroke:#000;stroke-linejoin:round;stroke-width:2px"/><path d="M22,9V5a4,4,0,0,1,4-4H38a4,4,0,0,1,4,4V9" style="fill:none;stroke:#000;stroke-linejoin:round;stroke-width:2px"/><polyline points="28 37 28.83 39.07 32 47 35.17 39.07 36 37" style="fill:none;stroke:#000;stroke-linejoin:round;stroke-width:2px"/><line style="fill:none;stroke:#000;stroke-linejoin:round;stroke-width:2px" x1="29" x2="35" y1="39" y2="39"/><polyline points="32 47 40 43 39 41 41.78 38.22 42 38" style="fill:none;stroke:#000;stroke-linejoin:round;stroke-width:2px"/><polyline points="32 47 24 43 25 41 22.22 38.22 22 38" style="fill:none;stroke:#000;stroke-linejoin:round;stroke-width:2px"/><path d="M34.3,50.51A1.94,1.94,0,0,1,33,51H31a2,2,0,0,1,0-4h2a2.006,2.006,0,0,1,2,2,1.955,1.955,0,0,1-.59,1.41A1,1,0,0,1,34.3,50.51Z" style="fill:none;stroke:#000;stroke-linejoin:round;stroke-width:2px"/><path d="M35,49s11.75,0,11.99-9.69c.01-.1.01-.21.01-.31" style="fill:none;stroke:#000;stroke-linejoin:round;stroke-width:2px"/><path d="M29,49s-11.75,0-11.99-9.69C17,39.21,17,39.1,17,39" style="fill:none;stroke:#000;stroke-linejoin:round;stroke-width:2px"/><polyline points="32 51 32 58 32 60 37 55 34.3 50.51 34 50" style="fill:none;stroke:#000;stroke-linejoin:round;stroke-width:2px"/><polyline points="32 58 27 53 29.59 50.41 30 50" style="fill:none;stroke:#000;stroke-linejoin:round;stroke-width:2px"/><path d="M29,10a3,3,0,0,0,6,0" style="fill:none;stroke:#000;stroke-linejoin:round;stroke-width:2px"/><polyline points="32 13 32 8 32 6" style="fill:none;stroke:#000;stroke-linejoin:round;stroke-width:2px"/><polyline points="29 8 32 8 35 8" style="fill:none;stroke:#000;stroke-linejoin:round;stroke-width:2px"/></g></svg>