<?xml version="1.0" ?><svg viewBox="0 0 64 64" xmlns="http://www.w3.org/2000/svg"><title/><g data-name="47-woman" id="_47-woman"><path d="M46,39.96l1.82.37A3.994,3.994,0,0,1,51,44.25V63H13V44.25a3.994,3.994,0,0,1,3.18-3.92L18,39.96l3.02-.61A4.987,4.987,0,0,0,26,44a5.231,5.231,0,0,0,1.14-.14A5.231,5.231,0,0,0,27,45a5,5,0,0,0,10,0,5.231,5.231,0,0,0-.14-1.14A5.231,5.231,0,0,0,38,44a4.987,4.987,0,0,0,4.98-4.65Z" style="fill:#e9edf5"/><path d="M47.82,40.33,46,39.96l-3.02-.61A4.987,4.987,0,0,1,38,44a5.231,5.231,0,0,1-1.14-.14A5.231,5.231,0,0,1,37,45a5,5,0,0,1-10,0,5.231,5.231,0,0,1,.14-1.14A5.231,5.231,0,0,1,26,44a4.987,4.987,0,0,1-4.98-4.65L18,39.96l-1.82.37A3.994,3.994,0,0,0,13,44.25v4a3.994,3.994,0,0,1,3.18-3.92L18,43.96l3.02-.61A4.987,4.987,0,0,0,26,48a5.231,5.231,0,0,0,1.14-.14A5.231,5.231,0,0,0,27,49a5,5,0,0,0,10,0,5.231,5.231,0,0,0-.14-1.14A5.231,5.231,0,0,0,38,48a4.987,4.987,0,0,0,4.98-4.65l3.02.61,1.82.37A3.994,3.994,0,0,1,51,48.25v-4A3.994,3.994,0,0,0,47.82,40.33Z" style="fill:#afb4c8"/><path d="M37.67,38.28l5.31,1.07A4.987,4.987,0,0,1,38,44a5.231,5.231,0,0,1-1.14-.14A5.231,5.231,0,0,1,37,45a5,5,0,0,1-10,0,5.231,5.231,0,0,1,.14-1.14A5.231,5.231,0,0,1,26,44a4.987,4.987,0,0,1-4.98-4.65l5.31-1.07a1.918,1.918,0,0,0,.67-.24c.02.43.3,3.96,5,3.96s4.98-3.53,5-3.96A1.918,1.918,0,0,0,37.67,38.28Z" style="fill:#4a98f7"/><path d="M41,19a3,3,0,0,1,0,6h-.91l.55-6Z" style="fill:#eb975d"/><path d="M40.64,19l-.55,6L40,26a8.014,8.014,0,0,1-2.34,5.66,7.838,7.838,0,0,1-1.69,1.28A8,8,0,0,1,24,26l-.09-1-.55-6-.33-3.71A20.832,20.832,0,0,0,32,17a20.832,20.832,0,0,0,8.97-1.71Z" style="fill:#ffdaaa"/><path d="M23.4,19.453A21.289,21.289,0,0,0,32,21a21.289,21.289,0,0,0,8.6-1.547L40.64,19l.33-3.71A20.832,20.832,0,0,1,32,17a20.832,20.832,0,0,1-8.97-1.71L23.36,19Z" style="fill:#ffb680"/><path d="M37,38.04c-.02.43-.3,3.96-5,3.96s-4.98-3.53-5-3.96a1.976,1.976,0,0,0,1-1.73V33l.03-.06a7.964,7.964,0,0,0,7.94,0L36,33v3.31A1.976,1.976,0,0,0,37,38.04Z" style="fill:#ffb680"/><path d="M36,39.31a2.006,2.006,0,0,0,.227.906A4.233,4.233,0,0,0,37,38.04a1.976,1.976,0,0,1-1-1.73Z" style="fill:#eb975d"/><path d="M28,39.31v-3a1.976,1.976,0,0,1-1,1.73,4.233,4.233,0,0,0,.773,2.176A2.006,2.006,0,0,0,28,39.31Z" style="fill:#eb975d"/><path d="M32,37a7.954,7.954,0,0,0,3.97-1.06L36,36V33l-.03-.06a7.964,7.964,0,0,1-7.94,0L28,33v3l.03-.06A7.954,7.954,0,0,0,32,37Z" style="fill:#eb975d"/><path d="M32,1A14,14,0,0,0,18,15V39.96l3.02-.61,5.31-1.07a1.918,1.918,0,0,0,.67-.24,1.976,1.976,0,0,0,1-1.73V33l.03-.06A7.974,7.974,0,0,1,24,26l-.09-1H23a3,3,0,0,1,0-6h.36l-.33-3.71A20.832,20.832,0,0,0,32,17a20.832,20.832,0,0,0,8.97-1.71L40.64,19H41a3,3,0,0,1,0,6h-.91L40,26a8.014,8.014,0,0,1-2.34,5.66,7.838,7.838,0,0,1-1.69,1.28L36,33v3.31a1.976,1.976,0,0,0,1,1.73,1.918,1.918,0,0,0,.67.24l5.31,1.07,3.02.61V15A14,14,0,0,0,32,1Z" style="fill:#fad17f"/><path d="M24,26l-.09-1H23a2.983,2.983,0,0,1-1.657-.5A3,3,0,0,0,23,30h.91L24,31a7.96,7.96,0,0,0,3.513,6.6A1.983,1.983,0,0,0,28,36.31V33l.03-.06A7.974,7.974,0,0,1,24,26Z" style="fill:#cc9f56"/><path d="M40,31l.09-1H41a3,3,0,0,0,1.657-5.5A2.983,2.983,0,0,1,41,25h-.91L40,26a8.014,8.014,0,0,1-2.34,5.66,7.838,7.838,0,0,1-1.69,1.28L36,33v3.31a1.988,1.988,0,0,0,.487,1.291,7.778,7.778,0,0,0,1.173-.941A8.014,8.014,0,0,0,40,31Z" style="fill:#cc9f56"/><path d="M32,1A14,14,0,0,0,18,15v5a14,14,0,0,1,28,0V15A14,14,0,0,0,32,1Z" style="fill:#fcf2b6"/><path d="M23.36,19l.55,6H23a3,3,0,0,1,0-6Z" style="fill:#eb975d"/><path d="M23,15l.03.29L23.36,19l.55,6L24,26a7.992,7.992,0,0,0,11.97,6.94,7.838,7.838,0,0,0,1.69-1.28A8.014,8.014,0,0,0,40,26l.09-1,.55-6,.33-3.71L41,15" style="fill:none;stroke:#000;stroke-linejoin:round;stroke-width:2px"/><path d="M28,33v3.31a1.976,1.976,0,0,1-1,1.73,1.918,1.918,0,0,1-.67.24l-5.31,1.07L18,39.96l-1.82.37A3.994,3.994,0,0,0,13,44.25V63H51V44.25a3.994,3.994,0,0,0-3.18-3.92L46,39.96l-3.02-.61-5.31-1.07a1.918,1.918,0,0,1-.67-.24,1.976,1.976,0,0,1-1-1.73V33" style="fill:none;stroke:#000;stroke-linejoin:round;stroke-width:2px"/><path d="M46,40V15a14,14,0,0,0-28,0V40" style="fill:none;stroke:#000;stroke-linejoin:round;stroke-width:2px"/><path d="M40,19h1a3,3,0,0,1,0,6H40" style="fill:none;stroke:#000;stroke-linejoin:round;stroke-width:2px"/><path d="M24,19H23a3,3,0,0,0,0,6h1" style="fill:none;stroke:#000;stroke-linejoin:round;stroke-width:2px"/><path d="M19,48v5s-2,3-2,10" style="fill:none;stroke:#000;stroke-linejoin:round;stroke-width:2px"/><path d="M45,48v5s2,3,2,10" style="fill:none;stroke:#000;stroke-linejoin:round;stroke-width:2px"/><path d="M41,9a7.651,7.651,0,0,1,2,5,7.89,7.89,0,0,1-2.03,1.29A20.832,20.832,0,0,1,32,17a20.832,20.832,0,0,1-8.97-1.71A7.89,7.89,0,0,1,21,14a7.651,7.651,0,0,1,2-5" style="fill:none;stroke:#000;stroke-linejoin:round;stroke-width:2px"/><path d="M21,39a2,2,0,0,0,.02.35A4.987,4.987,0,0,0,26,44a5.231,5.231,0,0,0,1.14-.14A5.231,5.231,0,0,0,27,45a5,5,0,0,0,10,0,5.231,5.231,0,0,0-.14-1.14A5.231,5.231,0,0,0,38,44a4.987,4.987,0,0,0,4.98-4.65A2,2,0,0,0,43,39" style="fill:none;stroke:#000;stroke-linejoin:round;stroke-width:2px"/><path d="M27,38v.04c.02.43.3,3.96,5,3.96s4.98-3.53,5-3.96V38" style="fill:none;stroke:#000;stroke-linejoin:round;stroke-width:2px"/><line style="fill:none;stroke:#000;stroke-linejoin:round;stroke-width:2px" x1="32" x2="32" y1="50" y2="54"/></g></svg>