<?xml version="1.0" ?><svg viewBox="0 0 64 64" xmlns="http://www.w3.org/2000/svg"><title/><g data-name="19-monk" id="_19-monk"><path d="M24,16v8a4,4,0,1,1,0-8Z" style="fill:#eb975d"/><path d="M42.83,17.17A4,4,0,0,1,40,24V16A4.025,4.025,0,0,1,42.83,17.17Z" style="fill:#eb975d"/><path d="M36,32v5s0,4-4,4-4-4-4-4V32l.03-.06a7.964,7.964,0,0,0,7.94,0Z" style="fill:#ffb680"/><path d="M35.97,31.94a7.964,7.964,0,0,1-7.94,0L28,32v3l.03-.06a7.964,7.964,0,0,0,7.94,0L36,35V32Z" style="fill:#eb975d"/><path d="M40,16v9a7.992,7.992,0,0,1-11.97,6.94,7.838,7.838,0,0,1-1.69-1.28A8.014,8.014,0,0,1,24,25V13h9a2.938,2.938,0,0,0,3-3s0,3,4,3Z" style="fill:#ffdaaa"/><path d="M36,10a2.938,2.938,0,0,1-3,3H24v4h9a2.938,2.938,0,0,0,3-3s0,3,4,3V13C36,13,36,10,36,10Z" style="fill:#ffb680"/><path d="M32,55v8H9V41l9-1.9c.04,1.22.73,12.9,14,12.9Z" style="fill:#414952"/><path d="M49,63H32V52c13.27,0,13.96-11.68,14-12.9L55,41V63Z" style="fill:#414952"/><path d="M40.03,37.85,40,38s0,7-8,7-8-7-8-7l-.03-.15L28,37s0,4,4,4,4-4,4-4Z" style="fill:#afb4c8"/><path d="M40.03,37.85,46,39.1C45.96,40.32,45.27,52,32,52S18.04,40.32,18,39.1l5.97-1.25L24,38s0,7,8,7,8-7,8-7Z" style="fill:#e9edf5"/><path d="M24,13v3a4.025,4.025,0,0,0-2.83,1.17L21,17l-1-1V8L18,7l3.88-1.94A5.6,5.6,0,0,1,20,1H39a2.006,2.006,0,0,1,2,2V4h1a2.006,2.006,0,0,1,2,2V16l-1,1-.17.17A4.025,4.025,0,0,0,40,16V13c-4,0-4-3-4-3a2.938,2.938,0,0,1-3,3Z" style="fill:#e9edf5"/><path d="M42,4H41V3a2.006,2.006,0,0,0-2-2H20a6.141,6.141,0,0,0,.916,3H36a2.006,2.006,0,0,1,2,2V7h1a2.006,2.006,0,0,1,2,2v7.143a4.056,4.056,0,0,1,1.83,1.027L43,17l1-1V6A2.006,2.006,0,0,0,42,4Z" style="fill:#afb4c8"/><polyline points="28 32 28 37 23.97 37.85 18 39.1 9 41 9 63 15 63 32 63 49 63 55 63 55 41 46 39.1 40.03 37.85 36 37 36 32" style="fill:none;stroke:#000;stroke-linejoin:round;stroke-width:2px"/><line style="fill:none;stroke:#000;stroke-linejoin:round;stroke-width:2px" x1="49" x2="49" y1="63" y2="50"/><line style="fill:none;stroke:#000;stroke-linejoin:round;stroke-width:2px" x1="15" x2="15" y1="63" y2="50"/><path d="M24,16V13h9a2.938,2.938,0,0,0,3-3s0,3,4,3V25a7.992,7.992,0,0,1-11.97,6.94,7.838,7.838,0,0,1-1.69-1.28A8.014,8.014,0,0,1,24,25V16Z" style="fill:none;stroke:#000;stroke-linejoin:round;stroke-width:2px"/><path d="M40,24a4,4,0,1,0,0-8" style="fill:none;stroke:#000;stroke-linejoin:round;stroke-width:2px"/><path d="M24,16a4,4,0,0,0,0,8" style="fill:none;stroke:#000;stroke-linejoin:round;stroke-width:2px"/><path d="M43,17l1-1V6a2.006,2.006,0,0,0-2-2H41V3a2.006,2.006,0,0,0-2-2H20a5.6,5.6,0,0,0,1.88,4.06A4.994,4.994,0,0,0,25,6" style="fill:none;stroke:#000;stroke-linejoin:round;stroke-width:2px"/><polyline points="22 5 21.88 5.06 18 7 20 8 24 10" style="fill:none;stroke:#000;stroke-linejoin:round;stroke-width:2px"/><polyline points="21 17 20 16 20 8" style="fill:none;stroke:#000;stroke-linejoin:round;stroke-width:2px"/><path d="M28,37s0,4,4,4,4-4,4-4" style="fill:none;stroke:#000;stroke-linejoin:round;stroke-width:2px"/><path d="M24,38s0,7,8,7,8-7,8-7" style="fill:none;stroke:#000;stroke-linejoin:round;stroke-width:2px"/><path d="M18,39v.1c.04,1.22.73,12.9,14,12.9S45.96,40.32,46,39.1V39" style="fill:none;stroke:#000;stroke-linejoin:round;stroke-width:2px"/><polyline points="32 52 32 55 32 60" style="fill:none;stroke:#000;stroke-linejoin:round;stroke-width:2px"/><polyline points="29 55 32 55 35 55" style="fill:none;stroke:#000;stroke-linejoin:round;stroke-width:2px"/></g></svg>