<?xml version="1.0" ?><svg viewBox="0 0 64 64" xmlns="http://www.w3.org/2000/svg"><title/><g data-name="33-Swat" id="_33-Swat"><path d="M26,2.6V15H23V5.06A12.063,12.063,0,0,1,26,2.6Z" style="fill:#7e8596"/><path d="M46,10a2.006,2.006,0,0,0,2,2v3H44V13a11.858,11.858,0,0,0-.38-3Z" style="fill:#7e8596"/><path d="M41,5.06V15H38V2.6A12.063,12.063,0,0,1,41,5.06Z" style="fill:#7e8596"/><polygon points="20 15 23 15 26 15 38 15 41 15 44 15 46 15 46 18 44 18 40 18 24 18 20 18 18 18 18 15 20 15" style="fill:#afb4c8"/><path d="M23,5.06V15H20V13A11.923,11.923,0,0,1,23,5.06Z" style="fill:#414952"/><path d="M44,13v2H41V5.06A11.995,11.995,0,0,1,44,13Z" style="fill:#414952"/><path d="M38,2.6V15H26V2.6a12.05,12.05,0,0,1,12,0Z" style="fill:#414952"/><circle cx="48" cy="10" r="2" style="fill:#4a98f7"/><polygon points="37 53 37 56 27 56 27 53 27 52 37 52 37 53" style="fill:#afb4c8"/><path d="M51,44.25V63H44V59h3V49H45V45H44V39.56l3.82.77A3.994,3.994,0,0,1,51,44.25Z" style="fill:#414952"/><path d="M44,18l2,16-8.77-1.95a5.221,5.221,0,0,0,.43-.39A8.014,8.014,0,0,0,40,26l.13-1H41a3,3,0,0,0,0-6h-.12L41,18Z" style="fill:#cc9f56"/><polygon points="45 45 45 49 39 49 39 45 40 45 44 45 45 45" style="fill:#e9edf5"/><rect height="4" style="fill:#afb4c8" width="4" x="40" y="59"/><polygon points="44 39.56 44 45 40 45 40 38.75 44 39.56" style="fill:#afb4c8"/><path d="M41,19a3,3,0,0,1,0,6h-.87l.75-6Z" style="fill:#ffb680"/><polygon points="40.88 19 40.13 25 40 25 36 25 34 23 30 23 28 25 24 25 23.88 25 23.13 19 23 18 41 18 40.88 19" style="fill:#ffdaaa"/><polygon points="23.255 20 40.755 20 40.88 19 41 18 23 18 23.13 19 23.255 20" style="fill:#ffb680"/><path d="M37.23,32.05a7.356,7.356,0,0,1-1.26.89,7.964,7.964,0,0,1-7.94,0,7.356,7.356,0,0,1-1.26-.89A7.949,7.949,0,0,1,24,26l-.12-1H28l2-2h4l2,2h4.13L40,26a8.014,8.014,0,0,1-2.34,5.66A5.221,5.221,0,0,1,37.23,32.05Z" style="fill:#7e8596"/><polygon points="40 59 40 63 24 63 24 59 27 59 27 56 37 56 37 59 40 59" style="fill:#414952"/><path d="M32,39h2l2-2,.11-.03a1.987,1.987,0,0,0,1.56,1.31l2.33.47V45H39v4H37v3H27V49H25V45H24V38.75l2.33-.47a1.987,1.987,0,0,0,1.56-1.31L28,37l2,2Z" style="fill:#414952"/><path d="M36.11,36.97,36,37l-2,2H30l-2-2-.11-.03a2.076,2.076,0,0,0,.11-.66V33l.03-.06a7.964,7.964,0,0,0,7.94,0L36,33v3.31A2.076,2.076,0,0,0,36.11,36.97Z" style="fill:#ffb680"/><path d="M28,36.31a2.076,2.076,0,0,1-.11.66L28,37Z" style="fill:#eb975d"/><path d="M32,37a7.954,7.954,0,0,0,3.97-1.06L36,36V33l-.03-.06a7.964,7.964,0,0,1-7.94,0L28,33v3l.03-.06A7.954,7.954,0,0,0,32,37Z" style="fill:#eb975d"/><path d="M36,37l.11-.03a2.076,2.076,0,0,1-.11-.66Z" style="fill:#eb975d"/><path d="M26.77,32.05,18,34l2-16h3l.13,1H23a3,3,0,0,0,0,6h.88L24,26A7.949,7.949,0,0,0,26.77,32.05Z" style="fill:#cc9f56"/><polygon points="25 45 25 49 19 49 19 45 20 45 24 45 25 45" style="fill:#e9edf5"/><rect height="4" style="fill:#afb4c8" width="4" x="20" y="59"/><polygon points="24 38.75 24 45 20 45 20 39.56 24 38.75" style="fill:#afb4c8"/><path d="M23.88,25H23a3,3,0,0,1,0-6h.13Z" style="fill:#ffb680"/><path d="M20,59v4H13V44.25a3.994,3.994,0,0,1,3.18-3.92L20,39.56V45H19v4H17V59Z" style="fill:#414952"/><polygon points="27 49 27 53 22 54 17 53 17 52 17 49 19 49 25 49 27 49" style="fill:#afb4c8"/><polygon points="27 53 27 59 24 59 20 59 17 59 17 56 17 53 22 54 27 53" style="fill:#7e8596"/><polygon points="47 49 47 53 42 54 37 53 37 52 37 49 39 49 45 49 47 49" style="fill:#afb4c8"/><polygon points="47 53 47 59 44 59 40 59 37 59 37 56 37 53 42 54 47 53" style="fill:#7e8596"/><path d="M44,15V13a11.995,11.995,0,0,0-3-7.94A12.063,12.063,0,0,0,38,2.6a12.05,12.05,0,0,0-12,0,12.063,12.063,0,0,0-3,2.46A11.923,11.923,0,0,0,20,13v2H44Z" style="fill:none;stroke:#000;stroke-linejoin:round;stroke-width:2px"/><polyline points="20 15 18 15 18 18 20 18 23 18 41 18 44 18 46 18 46 15 44 15" style="fill:none;stroke:#000;stroke-linejoin:round;stroke-width:2px"/><circle cx="48" cy="10" r="2" style="fill:none;stroke:#000;stroke-linejoin:round;stroke-width:2px"/><polyline points="46 10 43.62 10 43 10" style="fill:none;stroke:#000;stroke-linejoin:round;stroke-width:2px"/><polyline points="48 12 48 15 46 15" style="fill:none;stroke:#000;stroke-linejoin:round;stroke-width:2px"/><polyline points="26 2 26 2.6 26 15" style="fill:none;stroke:#000;stroke-linejoin:round;stroke-width:2px"/><polyline points="23 15 23 5.06 23 5" style="fill:none;stroke:#000;stroke-linejoin:round;stroke-width:2px"/><polyline points="38 2 38 2.6 38 15" style="fill:none;stroke:#000;stroke-linejoin:round;stroke-width:2px"/><polyline points="41 15 41 5.06 41 5" style="fill:none;stroke:#000;stroke-linejoin:round;stroke-width:2px"/><polyline points="25 49 25 45 24 45 20 45 19 45 19 49" style="fill:none;stroke:#000;stroke-linejoin:round;stroke-width:2px"/><polyline points="45 49 45 45 44 45 40 45 39 45 39 49" style="fill:none;stroke:#000;stroke-linejoin:round;stroke-width:2px"/><polyline points="20 45 20 39.56 20 39" style="fill:none;stroke:#000;stroke-linejoin:round;stroke-width:2px"/><polyline points="24 45 24 38.75 24 38" style="fill:none;stroke:#000;stroke-linejoin:round;stroke-width:2px"/><polyline points="40 45 40 38.75 40 38" style="fill:none;stroke:#000;stroke-linejoin:round;stroke-width:2px"/><polyline points="44 45 44 39.56 44 39" style="fill:none;stroke:#000;stroke-linejoin:round;stroke-width:2px"/><polygon points="27 56 27 59 24 59 20 59 17 59 17 53 17 49 19 49 25 49 27 49 27 52 27 53 27 56" style="fill:none;stroke:#000;stroke-linejoin:round;stroke-width:2px"/><polyline points="17 53 22 54 27 53" style="fill:none;stroke:#000;stroke-linejoin:round;stroke-width:2px"/><polygon points="47 53 47 59 44 59 40 59 37 59 37 56 37 53 37 52 37 49 39 49 45 49 47 49 47 53" style="fill:none;stroke:#000;stroke-linejoin:round;stroke-width:2px"/><polyline points="37 53 42 54 47 53" style="fill:none;stroke:#000;stroke-linejoin:round;stroke-width:2px"/><line style="fill:none;stroke:#000;stroke-linejoin:round;stroke-width:2px" x1="27" x2="37" y1="52" y2="52"/><line style="fill:none;stroke:#000;stroke-linejoin:round;stroke-width:2px" x1="27" x2="37" y1="56" y2="56"/><line style="fill:none;stroke:#000;stroke-linejoin:round;stroke-width:2px" x1="40" x2="40" y1="59" y2="63"/><line style="fill:none;stroke:#000;stroke-linejoin:round;stroke-width:2px" x1="44" x2="44" y1="59" y2="63"/><line style="fill:none;stroke:#000;stroke-linejoin:round;stroke-width:2px" x1="20" x2="20" y1="59" y2="63"/><line style="fill:none;stroke:#000;stroke-linejoin:round;stroke-width:2px" x1="24" x2="24" y1="59" y2="63"/><path d="M23,18l.13,1,.75,6L24,26a7.949,7.949,0,0,0,2.77,6.05,7.356,7.356,0,0,0,1.26.89,7.964,7.964,0,0,0,7.94,0,7.356,7.356,0,0,0,1.26-.89,5.221,5.221,0,0,0,.43-.39A8.014,8.014,0,0,0,40,26l.13-1,.75-6L41,18" style="fill:none;stroke:#000;stroke-linejoin:round;stroke-width:2px"/><path d="M28,33v3.31a2.076,2.076,0,0,1-.11.66,1.987,1.987,0,0,1-1.56,1.31L24,38.75l-4,.81-3.82.77A3.994,3.994,0,0,0,13,44.25V63H51V44.25a3.994,3.994,0,0,0-3.18-3.92L44,39.56l-4-.81-2.33-.47a1.987,1.987,0,0,1-1.56-1.31,2.076,2.076,0,0,1-.11-.66V33" style="fill:none;stroke:#000;stroke-linejoin:round;stroke-width:2px"/><path d="M40,19h1a3,3,0,0,1,0,6H40" style="fill:none;stroke:#000;stroke-linejoin:round;stroke-width:2px"/><path d="M24,19H23a3,3,0,0,0,0,6h1" style="fill:none;stroke:#000;stroke-linejoin:round;stroke-width:2px"/><polyline points="24 25 28 25 30 23 34 23 36 25 40 25" style="fill:none;stroke:#000;stroke-linejoin:round;stroke-width:2px"/><polyline points="28 37 30 39 32 39 34 39 36 37" style="fill:none;stroke:#000;stroke-linejoin:round;stroke-width:2px"/><line style="fill:none;stroke:#000;stroke-linejoin:round;stroke-width:2px" x1="32" x2="32" y1="39" y2="43"/><line style="fill:none;stroke:#000;stroke-linejoin:round;stroke-width:2px" x1="32" x2="32" y1="45" y2="47"/><polyline points="44 18 46 34 37.23 32.05 37 32" style="fill:none;stroke:#000;stroke-linejoin:round;stroke-width:2px"/><polyline points="20 18 18 34 26.77 32.05 27 32" style="fill:none;stroke:#000;stroke-linejoin:round;stroke-width:2px"/></g></svg>