<?xml version="1.0" ?><svg viewBox="0 0 64 64" xmlns="http://www.w3.org/2000/svg"><title/><g data-name="68-woman" id="_68-woman"><path d="M23,14.94V15l.58,6.35L24,26a8.014,8.014,0,0,0,2.34,5.66L23,35s-5-6-5-20a14,14,0,0,1,28,0c0,14-5,20-5,20l-3.34-3.34A8.014,8.014,0,0,0,40,26l.42-4.65L41,15v-.06C32,14.37,32,10,32,10S32,14.37,23,14.94Z" style="fill:#414952"/><path d="M32,4A13.992,13.992,0,0,1,45.954,17.085C45.979,16.407,46,15.721,46,15a14,14,0,0,0-28,0c0,.721.021,1.407.046,2.085A13.992,13.992,0,0,1,32,4Z" style="fill:#636978"/><circle cx="32" cy="54" r="2" style="fill:#e9edf5"/><path d="M13,56h4.82A27.177,27.177,0,0,0,17,63H13Z" style="fill:#ffb680"/><path d="M51,56v7H47a27.177,27.177,0,0,0-.82-7Z" style="fill:#ffb680"/><path d="M37.67,38.28l1.31.26C38.89,40.88,38.1,50,32,50s-6.88-9.1-6.99-11.45l1.32-.27a1.993,1.993,0,0,0,1.23-.72L32,42l4.44-4.44A1.993,1.993,0,0,0,37.67,38.28Z" style="fill:#ffb680"/><path d="M36.44,37.56,32,42l-4.44-4.44A1.962,1.962,0,0,0,28,36.31V33l.03-.06a7.964,7.964,0,0,0,7.94,0L36,33v3.31A1.962,1.962,0,0,0,36.44,37.56Z" style="fill:#ffb680"/><path d="M32,37a7.954,7.954,0,0,0,3.97-1.06L36,36V33l-.03-.06a7.964,7.964,0,0,1-7.94,0L28,33v3l.03-.06A7.954,7.954,0,0,0,32,37Z" style="fill:#eb975d"/><path d="M27,18a3,3,0,0,0-3,3c0,.1.01.21.02.31l-.44.04L23,15v-.06c9-.57,9-4.94,9-4.94s0,4.37,9,4.94V15l-.58,6.35-.44-.04c.01-.1.02-.21.02-.31a3,3,0,0,0-6,0H30A3,3,0,0,0,27,18Z" style="fill:#ffb680"/><path d="M24,26l-.42-4.65.44-.04A3,3,0,0,0,30,21h4a3,3,0,0,0,5.98.31l.44.04L40,26a8.014,8.014,0,0,1-2.34,5.66l-1.69,1.28a7.964,7.964,0,0,1-7.94,0,7.838,7.838,0,0,1-1.69-1.28A8.014,8.014,0,0,1,24,26Z" style="fill:#ffdaaa"/><path d="M34,54a2,2,0,1,0-2,2A2.006,2.006,0,0,0,34,54ZM17.82,56H13V44.25a3.994,3.994,0,0,1,3.18-3.92l8.83-1.78C25.12,40.9,25.91,50,32,50s6.89-9.12,6.98-11.46l8.84,1.79A3.994,3.994,0,0,1,51,44.25V56H46.18A27.177,27.177,0,0,1,47,63H17A27.177,27.177,0,0,1,17.82,56Z" style="fill:#4a98f7"/><path d="M32,59a1.991,1.991,0,0,0,1.307-3.5,1.958,1.958,0,0,1-2.614,0A1.991,1.991,0,0,0,32,59Z" style="fill:#2864f0"/><path d="M47.82,40.33l-8.84-1.79C38.89,40.88,38.1,50,32,50s-6.88-9.1-6.99-11.45l-8.83,1.78A3.994,3.994,0,0,0,13,44.25v3a3.994,3.994,0,0,1,3.18-3.92l8.83-1.78c.1,2.132.773,9.794,5.44,11.205a1.97,1.97,0,0,1,3.1,0c4.675-1.412,5.347-9.092,5.429-11.215l8.84,1.79A3.994,3.994,0,0,1,51,47.25v-3A3.994,3.994,0,0,0,47.82,40.33Z" style="fill:#2864f0"/><path d="M40,21c0,.1-.01.21-.02.31A2.965,2.965,0,1,1,40,21Z" style="fill:#4a98f7"/><path d="M27,18a3,3,0,1,1-2.98,3.31c-.01-.1-.02-.21-.02-.31A3,3,0,0,1,27,18Z" style="fill:#4a98f7"/><path d="M23,15l.58,6.35L24,26a8.014,8.014,0,0,0,2.34,5.66,7.838,7.838,0,0,0,1.69,1.28,7.964,7.964,0,0,0,7.94,0l1.69-1.28A8.014,8.014,0,0,0,40,26l.42-4.65L41,15" style="fill:none;stroke:#000;stroke-linejoin:round;stroke-width:2px"/><path d="M28,33v3.31a1.962,1.962,0,0,1-.44,1.25,1.993,1.993,0,0,1-1.23.72l-1.32.27-8.83,1.78A3.994,3.994,0,0,0,13,44.25V63H51V44.25a3.994,3.994,0,0,0-3.18-3.92l-8.84-1.79-1.31-.26a1.993,1.993,0,0,1-1.23-.72A1.962,1.962,0,0,1,36,36.31V33" style="fill:none;stroke:#000;stroke-linejoin:round;stroke-width:2px"/><path d="M27,31l-.66.66L23,35s-5-6-5-20a14,14,0,0,1,28,0c0,14-5,20-5,20l-3.34-3.34L37,31" style="fill:none;stroke:#000;stroke-linejoin:round;stroke-width:2px"/><path d="M19,48v5a10.9,10.9,0,0,0-1.18,3A27.177,27.177,0,0,0,17,63" style="fill:none;stroke:#000;stroke-linejoin:round;stroke-width:2px"/><path d="M45,48v5a10.9,10.9,0,0,1,1.18,3A27.177,27.177,0,0,1,47,63" style="fill:none;stroke:#000;stroke-linejoin:round;stroke-width:2px"/><path d="M30,21a3,3,0,0,0-6,0c0,.1.01.21.02.31A3,3,0,0,0,30,21Z" style="fill:none;stroke:#000;stroke-linejoin:round;stroke-width:2px"/><path d="M39.98,21.31c.01-.1.02-.21.02-.31a3.041,3.041,0,1,0-.02.31Z" style="fill:none;stroke:#000;stroke-linejoin:round;stroke-width:2px"/><line style="fill:none;stroke:#000;stroke-linejoin:round;stroke-width:2px" x1="30" x2="34" y1="21" y2="21"/><path d="M43,15c-.71,0-1.38-.02-2-.06C32,14.37,32,10,32,10s0,4.37-9,4.94c-.62.04-1.29.06-2,.06" style="fill:none;stroke:#000;stroke-linejoin:round;stroke-width:2px"/><polyline points="27 37 27.56 37.56 32 42 36.44 37.56 37 37" style="fill:none;stroke:#000;stroke-linejoin:round;stroke-width:2px"/><path d="M25,38s0,.2.01.55C25.12,40.9,25.91,50,32,50s6.89-9.12,6.98-11.46C39,38.2,39,38,39,38" style="fill:none;stroke:#000;stroke-linejoin:round;stroke-width:2px"/><line style="fill:none;stroke:#000;stroke-linejoin:round;stroke-width:2px" x1="32" x2="32" y1="50" y2="52"/><circle cx="32" cy="54" r="2" style="fill:none;stroke:#000;stroke-linejoin:round;stroke-width:2px"/><polyline points="46 56 46.18 56 51 56" style="fill:none;stroke:#000;stroke-linejoin:round;stroke-width:2px"/><polyline points="13 56 17.82 56 18 56" style="fill:none;stroke:#000;stroke-linejoin:round;stroke-width:2px"/></g></svg>