<?xml version="1.0" ?><svg viewBox="0 0 64 64" xmlns="http://www.w3.org/2000/svg"><title/><g data-name="36-Surgeon" id="_36-Surgeon"><path d="M44,16v6a3,3,0,0,0-3-3h-.3l.3-3Z" style="fill:#b25e1e"/><path d="M44,22v7c0,2-2,5-2,5l-3.85-2.89A8,8,0,0,0,40,26l.1-1H41A3,3,0,0,0,44,22Z" style="fill:#b25e1e"/><path d="M23,25h.9l.1,1a7.941,7.941,0,0,0,1.85,5.11L22,34s-2-3-2-5V22A3,3,0,0,0,23,25Z" style="fill:#b25e1e"/><path d="M23,16l.3,3H23a3,3,0,0,0-3,3V16Z" style="fill:#b25e1e"/><path d="M32,1A12,12,0,0,1,44,13v3H20V13c0-.34.01-.67.04-1A12,12,0,0,1,32,1Z" style="fill:#06ccab"/><path d="M32,1a11.98,11.98,0,0,0-9.65,4.871A11.992,11.992,0,0,1,41.5,15.5V16H44V13A12,12,0,0,0,32,1Z" style="fill:#95e8c8"/><path d="M40,25h.1L40,26a8,8,0,0,1-1.85,5.11c-.15.19-.32.37-.49.55a7.838,7.838,0,0,1-1.69,1.28,7.964,7.964,0,0,1-7.94,0,7.706,7.706,0,0,1-2.18-1.83A7.941,7.941,0,0,1,24,26l-.1-1H40Z" style="fill:#00bd9d"/><path d="M24.069,27H39.93A8.046,8.046,0,0,0,40,26l.1-1H23.9l.1,1A8.047,8.047,0,0,0,24.069,27Z" style="fill:#95e8c8"/><path d="M17,63H13V44.25a3.994,3.994,0,0,1,3.18-3.92L24,38.75V40l4,4H23V63Z" style="fill:#00bd9d"/><rect height="19" style="fill:#088a7a" width="3" x="20" y="44"/><polygon points="24 40 24 38.75 21 39.356 21 40 25 44 28 44 24 40" style="fill:#088a7a"/><path d="M23,63V44H35l4-4V38.55l8.82,1.78A3.994,3.994,0,0,1,51,44.25V63H23Z" style="fill:#06ccab"/><path d="M25.5,46.5h12l4-4V41.05l8.82,1.78a3.987,3.987,0,0,1,.466.141A3.986,3.986,0,0,0,47.82,40.33L39,38.55V40l-4,4H23V63h2.5Z" style="fill:#95e8c8"/><path d="M23.3,19l.6,6H23a3,3,0,0,1,0-6Z" style="fill:#ffb680"/><path d="M44,22a3,3,0,0,1-3,3h-.9l.6-6H41A3,3,0,0,1,44,22Z" style="fill:#ffb680"/><path d="M39,38.55V40l-4,4H28l-4-4V38.75l2.33-.47A1.989,1.989,0,0,0,28,36.31V33l.03-.06a7.964,7.964,0,0,0,7.94,0L36,33v3.31a1.989,1.989,0,0,0,1.67,1.97Z" style="fill:#ffb680"/><path d="M26.33,41.28A1.989,1.989,0,0,0,28,39.31v-3a1.989,1.989,0,0,1-1.67,1.97L24,38.75V40l1.456,1.456Z" style="fill:#eb975d"/><path d="M32,37a7.954,7.954,0,0,0,3.97-1.06L36,36V33l-.03-.06a7.964,7.964,0,0,1-7.94,0L28,33v3l.03-.06A7.954,7.954,0,0,0,32,37Z" style="fill:#eb975d"/><path d="M37.67,38.28A1.989,1.989,0,0,1,36,36.31v3a1.989,1.989,0,0,0,1.67,1.97l.042.008L39,40V38.55Z" style="fill:#eb975d"/><polygon points="40.7 19 40.1 25 40 25 24 25 23.9 25 23.3 19 23 16 41 16 40.7 19" style="fill:#ffdaaa"/><polygon points="40.7 19 41 16 23 16 23.3 19 40.7 19" style="fill:#ffb680"/><path d="M44,16V13a12,12,0,0,0-23.96-1c-.03.33-.04.66-.04,1v3H44Z" style="fill:none;stroke:#000;stroke-linejoin:round;stroke-width:2px"/><polyline points="28 44 23 44 23 63" style="fill:none;stroke:#000;stroke-linejoin:round;stroke-width:2px"/><line style="fill:none;stroke:#000;stroke-linejoin:round;stroke-width:2px" x1="26" x2="28" y1="49" y2="49"/><line style="fill:none;stroke:#000;stroke-linejoin:round;stroke-width:2px" x1="26" x2="28" y1="54" y2="54"/><polyline points="20 12 20.04 12 41 12" style="fill:none;stroke:#000;stroke-linejoin:round;stroke-width:2px"/><path d="M23,16l.3,3,.6,6,.1,1a7.941,7.941,0,0,0,1.85,5.11,7.706,7.706,0,0,0,2.18,1.83,7.964,7.964,0,0,0,7.94,0,7.838,7.838,0,0,0,1.69-1.28c.17-.18.34-.36.49-.55A8,8,0,0,0,40,26l.1-1,.6-6,.3-3" style="fill:none;stroke:#000;stroke-linejoin:round;stroke-width:2px"/><path d="M28,33v3.31a1.989,1.989,0,0,1-1.67,1.97L24,38.75l-7.82,1.58A3.994,3.994,0,0,0,13,44.25V63H51V44.25a3.994,3.994,0,0,0-3.18-3.92L39,38.55l-1.33-.27A1.989,1.989,0,0,1,36,36.31V33" style="fill:none;stroke:#000;stroke-linejoin:round;stroke-width:2px"/><path d="M40,19h1a3,3,0,0,1,0,6H40" style="fill:none;stroke:#000;stroke-linejoin:round;stroke-width:2px"/><path d="M24,19H23a3,3,0,0,0,0,6h1" style="fill:none;stroke:#000;stroke-linejoin:round;stroke-width:2px"/><path d="M19,48v5s-2,3-2,10" style="fill:none;stroke:#000;stroke-linejoin:round;stroke-width:2px"/><path d="M45,48v5s2,3,2,10" style="fill:none;stroke:#000;stroke-linejoin:round;stroke-width:2px"/><polyline points="24 38 24 38.75 24 40 28 44 35 44 39 40 39 38.55 39 38" style="fill:none;stroke:#000;stroke-linejoin:round;stroke-width:2px"/><path d="M44,16V29c0,2-2,5-2,5l-3.85-2.89L38,31" style="fill:none;stroke:#000;stroke-linejoin:round;stroke-width:2px"/><path d="M20,16V29c0,2,2,5,2,5l3.85-2.89L26,31" style="fill:none;stroke:#000;stroke-linejoin:round;stroke-width:2px"/><line style="fill:none;stroke:#000;stroke-linejoin:round;stroke-width:2px" x1="24" x2="40" y1="25" y2="25"/></g></svg>