<?xml version="1.0" ?><svg viewBox="0 0 64 64" xmlns="http://www.w3.org/2000/svg"><title/><g data-name="32-Driver" id="_32-Driver"><path d="M43.83,11A12,12,0,0,1,44,13a41.145,41.145,0,0,1-1.23,11H38l-3-3H29l-3,3H21.37A37.584,37.584,0,0,1,20,13a12,12,0,0,1,.17-2H25l3,3h8l3-3Z" style="fill:#4a98f7"/><path d="M42.77,21H38l-3-3H29l-3,3H21.37a34.63,34.63,0,0,1-1.33-8.931c-.024.307-.04.618-.04.931a37.584,37.584,0,0,0,1.37,11H26l3-3h6l3,3h4.77A41.145,41.145,0,0,0,44,13c0-.293-.016-.583-.038-.872A37.533,37.533,0,0,1,42.77,21Z" style="fill:#a3d4ff"/><path d="M20.17,14H25l3,3h8l3-3h4.83c.063.37.1.747.132,1.128C43.985,14.44,44,13.737,44,13a12,12,0,0,0-.17-2H39l-3,3H28l-3-3H20.17A12,12,0,0,0,20,13c0,.715.016,1.4.04,2.069C20.069,14.708,20.111,14.351,20.17,14Z" style="fill:#2864f0"/><path d="M36.96,2.07C36.66,2.55,35,5.53,35,11H29c0-5.47-1.66-8.45-1.96-8.93a12.031,12.031,0,0,1,9.92,0Z" style="fill:#afb4c8"/><path d="M32,5a11.973,11.973,0,0,1,3.623.564A12.778,12.778,0,0,1,36.96,2.07a12.031,12.031,0,0,0-9.92,0,12.778,12.778,0,0,1,1.337,3.494A11.973,11.973,0,0,1,32,5Z" style="fill:#636978"/><path d="M32,36h4v.31a1.989,1.989,0,0,0,1.67,1.97L43,39.36V43l4,1v3h4V63H47c0-7-2-10-2-10l-3-3H38l-3,3H29l-3-3H22l-3,3s-2,3-2,10H13V47h4V44l4-1V39.36l5.33-1.08A1.989,1.989,0,0,0,28,36.31V36Z" style="fill:#fc979e"/><polygon points="47 44 43 43 43 45 47 46 47 44" style="fill:#ff475a"/><path d="M28,38.31V38h8v.31a1.989,1.989,0,0,0,1.67,1.97L43,41.36v-2l-5.33-1.08A1.989,1.989,0,0,1,36,36.31V36H28v.31a1.989,1.989,0,0,1-1.67,1.97L21,39.36v2l5.33-1.08A1.989,1.989,0,0,0,28,38.31Z" style="fill:#ff475a"/><rect height="2" style="fill:#ff475a" width="4" x="47" y="47"/><rect height="2" style="fill:#ff475a" width="4" x="13" y="47"/><polygon points="21 43 17 44 17 46 21 45 21 43" style="fill:#ff475a"/><path d="M51,44.25V47H47V44l-4-1V39.36l4.82.97A3.994,3.994,0,0,1,51,44.25Z" style="fill:#636978"/><path d="M35,53l3-3h4l3,3s2,3,2,10H17c0-7,2-10,2-10l3-3h4l3,3Z" style="fill:#636978"/><path d="M19,56l3-3h4l3,3h6l3-3h4l3,3s1.416,2.141,1.863,7H47c0-7-2-10-2-10l-3-3H38l-3,3H29l-3-3H22l-3,3s-2,3-2,10h.137C17.584,58.141,19,56,19,56Z" style="fill:#afb4c8"/><path d="M43.83,11H35c0-5.47,1.66-8.45,1.96-8.93A11.982,11.982,0,0,1,43.83,11Z" style="fill:#fc979e"/><path d="M36,32.38A12.013,12.013,0,0,1,32,33a10.712,10.712,0,0,1-4-.72c-2.87-1.14-5.25-3.7-6.63-8.28H26l3-3h6l3,3h4.77C41.39,28.9,38.96,31.36,36,32.38Z" style="fill:#fc979e"/><polygon points="39 11 36 14 28 14 25 11 29 11 35 11 39 11" style="fill:#636978"/><path d="M36,32.38V36H28V32.28A10.712,10.712,0,0,0,32,33,12.013,12.013,0,0,0,36,32.38Z" style="fill:#636978"/><path d="M29,11H20.17a11.982,11.982,0,0,1,6.87-8.93C27.34,2.55,29,5.53,29,11Z" style="fill:#fc979e"/><path d="M36.96,6.07A12.023,12.023,0,0,1,42.386,11H43.83a11.982,11.982,0,0,0-6.87-8.93C36.66,2.55,35,5.53,35,11h.326A14.378,14.378,0,0,1,36.96,6.07Z" style="fill:#ff475a"/><path d="M27.04,6.07A14.378,14.378,0,0,1,28.674,11H29c0-5.47-1.66-8.45-1.96-8.93A11.982,11.982,0,0,0,20.17,11h1.444A12.023,12.023,0,0,1,27.04,6.07Z" style="fill:#ff475a"/><path d="M21,39.36V43l-4,1v3H13V44.25a3.994,3.994,0,0,1,3.18-3.92Z" style="fill:#636978"/><path d="M42.77,24A41.145,41.145,0,0,0,44,13a12,12,0,0,0-24,0,37.584,37.584,0,0,0,1.37,11c1.38,4.58,3.76,7.14,6.63,8.28A10.712,10.712,0,0,0,32,33a12.013,12.013,0,0,0,4-.62C38.96,31.36,41.39,28.9,42.77,24Z" style="fill:none;stroke:#000;stroke-linejoin:round;stroke-width:2px"/><polyline points="20 11 20.17 11 25 11 29 11 35 11 39 11 43.83 11 44 11" style="fill:none;stroke:#000;stroke-linejoin:round;stroke-width:2px"/><polyline points="21 24 21.37 24 26 24 29 21 35 21 38 24 42.77 24 43 24" style="fill:none;stroke:#000;stroke-linejoin:round;stroke-width:2px"/><line style="fill:none;stroke:#000;stroke-linejoin:round;stroke-width:2px" x1="29" x2="35" y1="25" y2="25"/><line style="fill:none;stroke:#000;stroke-linejoin:round;stroke-width:2px" x1="29" x2="35" y1="28" y2="28"/><path d="M27,2a.222.222,0,0,1,.04.07C27.34,2.55,29,5.53,29,11" style="fill:none;stroke:#000;stroke-linejoin:round;stroke-width:2px"/><path d="M37,2a.222.222,0,0,0-.04.07C36.66,2.55,35,5.53,35,11" style="fill:none;stroke:#000;stroke-linejoin:round;stroke-width:2px"/><polyline points="25 11 28 14 36 14 39 11" style="fill:none;stroke:#000;stroke-linejoin:round;stroke-width:2px"/><path d="M28,32v4.31a1.989,1.989,0,0,1-1.67,1.97L21,39.36l-4.82.97A3.994,3.994,0,0,0,13,44.25V63H51V44.25a3.994,3.994,0,0,0-3.18-3.92L43,39.36l-5.33-1.08A1.989,1.989,0,0,1,36,36.31V32" style="fill:none;stroke:#000;stroke-linejoin:round;stroke-width:2px"/><path d="M19,49v4s-2,3-2,10" style="fill:none;stroke:#000;stroke-linejoin:round;stroke-width:2px"/><path d="M45,49v4s2,3,2,10" style="fill:none;stroke:#000;stroke-linejoin:round;stroke-width:2px"/><polyline points="28 36 32 36 36 36" style="fill:none;stroke:#000;stroke-linejoin:round;stroke-width:2px"/><line style="fill:none;stroke:#000;stroke-linejoin:round;stroke-width:2px" x1="32" x2="32" y1="36" y2="40"/><polyline points="45 53 42 50 38 50 35 53 29 53 26 50 22 50 19 53" style="fill:none;stroke:#000;stroke-linejoin:round;stroke-width:2px"/><line style="fill:none;stroke:#000;stroke-linejoin:round;stroke-width:2px" x1="35" x2="35" y1="53" y2="60"/><line style="fill:none;stroke:#000;stroke-linejoin:round;stroke-width:2px" x1="29" x2="29" y1="53" y2="60"/><polyline points="43 39 43 39.36 43 43 47 44 47 47 51 47" style="fill:none;stroke:#000;stroke-linejoin:round;stroke-width:2px"/><polyline points="21 39 21 39.36 21 43 17 44 17 47 13 47" style="fill:none;stroke:#000;stroke-linejoin:round;stroke-width:2px"/><line style="fill:none;stroke:#000;stroke-linejoin:round;stroke-width:2px" x1="32" x2="32" y1="42" y2="44"/></g></svg>