<?xml version="1.0" ?><svg viewBox="0 0 64 64" xmlns="http://www.w3.org/2000/svg"><title/><g data-name="26-woman" id="_26-woman"><polygon points="35 45 33 47 31 47 29 45 32 42 35 45" style="fill:#fc979e"/><polygon points="33 47 35 56 32 59 29 56 31 47 33 47" style="fill:#fc979e"/><path d="M32,42l-3,3-4-4V38.55l1.33-.27a1.993,1.993,0,0,0,1.23-.72Z" style="fill:#e9edf5"/><path d="M39,38.55V41l-4,4-3-3,4.44-4.44a1.993,1.993,0,0,0,1.23.72Z" style="fill:#e9edf5"/><path d="M31,47l-2,9,3,3v4H17a23.169,23.169,0,0,1,1.5-9H13V44.25a3.994,3.994,0,0,1,3.18-3.92L18,39.96l7-1.41V41l4,4Z" style="fill:#e9edf5"/><path d="M46,39.96l1.82.37A3.994,3.994,0,0,1,51,44.25V54H45.5A23.169,23.169,0,0,1,47,63H32V59l3-3-2-9,2-2,4-4V38.55Z" style="fill:#e9edf5"/><path d="M16.18,43.33,18,42.96l7-1.41V44l4,4,1.455,1.455L31,47l-2-2-4-4V38.55l-7,1.41-1.82.37A3.994,3.994,0,0,0,13,44.25v3A3.994,3.994,0,0,1,16.18,43.33Z" style="fill:#afb4c8"/><polygon points="29.545 56.545 29 59 32 62 32 59 29.545 56.545" style="fill:#afb4c8"/><polygon points="34.455 56.545 32 59 32 62 35 59 34.455 56.545" style="fill:#afb4c8"/><path d="M47.82,40.33,46,39.96l-7-1.41V41l-4,4-2,2,.545,2.455L35,48l4-4V41.55l7,1.41,1.82.37A3.994,3.994,0,0,1,51,47.25v-3A3.994,3.994,0,0,0,47.82,40.33Z" style="fill:#afb4c8"/><path d="M27.56,37.56a1.993,1.993,0,0,1-1.23.72L25,38.55l-7,1.41V21a17.479,17.479,0,0,0,5.65-.9L24,24a7.974,7.974,0,0,0,4.03,6.94L28,31v5.31A1.962,1.962,0,0,1,27.56,37.56Z" style="fill:#cc9f56"/><path d="M32,1A14,14,0,0,0,18,15v6a17.479,17.479,0,0,0,5.65-.9C32.48,17.16,36,8,36,8c0,5,5,5,5,5l-.36,4H41a3,3,0,0,1,0,6h-.91L40,24a8.014,8.014,0,0,1-2.34,5.66,7.838,7.838,0,0,1-1.69,1.28L36,31v5.31a1.962,1.962,0,0,0,.44,1.25,1.993,1.993,0,0,0,1.23.72l1.33.27,7,1.41V15A14,14,0,0,0,32,1Z" style="fill:#fad17f"/><path d="M21,18A13.98,13.98,0,0,1,43.274,6.726,13.987,13.987,0,0,0,18,15v6a18.442,18.442,0,0,0,3-.241Z" style="fill:#fcf2b6"/><path d="M39,34l-.03-.06a7.838,7.838,0,0,0,1.69-1.28A8.014,8.014,0,0,0,43,27l.09-1H44a2.981,2.981,0,0,0,2-.776V20.776A2.981,2.981,0,0,0,44,20a3,3,0,0,1-3,3h-.91L40,24a8.014,8.014,0,0,1-2.34,5.66,7.838,7.838,0,0,1-1.69,1.28L36,31v5.31a1.962,1.962,0,0,0,.44,1.25,1.993,1.993,0,0,0,1.23.72l1.33.27Z" style="fill:#cc9f56"/><path d="M13,54h5.5A23.169,23.169,0,0,0,17,63H13Z" style="fill:#ffb680"/><path d="M51,54v9H47a23.169,23.169,0,0,0-1.5-9Z" style="fill:#ffb680"/><path d="M36.44,37.56,32,42l-4.44-4.44A1.962,1.962,0,0,0,28,36.31V31l.03-.06a7.964,7.964,0,0,0,7.94,0L36,31v5.31A1.962,1.962,0,0,0,36.44,37.56Z" style="fill:#ffb680"/><path d="M32,35a7.954,7.954,0,0,0,3.97-1.06L36,34V31l-.03-.06a7.964,7.964,0,0,1-7.94,0L28,31v3l.03-.06A7.954,7.954,0,0,0,32,35Z" style="fill:#eb975d"/><path d="M36,38l.44-.44A1.962,1.962,0,0,1,36,36.31Z" style="fill:#eb975d"/><path d="M28,36.31a1.962,1.962,0,0,1-.44,1.25L28,38Z" style="fill:#eb975d"/><path d="M41,17a3,3,0,0,1,0,6h-.91l.55-6Z" style="fill:#ffb680"/><path d="M40.09,23,40,24a8.014,8.014,0,0,1-2.34,5.66,7.838,7.838,0,0,1-1.69,1.28A8,8,0,0,1,24,24l-.35-3.9C32.48,17.16,36,8,36,8c0,5,5,5,5,5l-.36,4Z" style="fill:#ffdaaa"/><path d="M36,12a4.767,4.767,0,0,0,4.642,4.977L41,13s-5,0-5-5c0,0-3.52,9.16-12.35,12.1L24,23.965C32.565,20.9,36,12,36,12Z" style="fill:#ffb680"/><path d="M18,40V15a14,14,0,0,1,28,0V40" style="fill:none;stroke:#000;stroke-linejoin:round;stroke-width:2px"/><path d="M23.64,20l.01.1L24,24a7.992,7.992,0,0,0,11.97,6.94,7.838,7.838,0,0,0,1.69-1.28A8.014,8.014,0,0,0,40,24l.09-1,.55-6L41,13s-5,0-5-5c0,0-3.52,9.16-12.35,12.1A17.479,17.479,0,0,1,18,21" style="fill:none;stroke:#000;stroke-linejoin:round;stroke-width:2px"/><path d="M28,31v5.31a1.962,1.962,0,0,1-.44,1.25,1.993,1.993,0,0,1-1.23.72L25,38.55l-7,1.41-1.82.37A3.994,3.994,0,0,0,13,44.25V63H51V44.25a3.994,3.994,0,0,0-3.18-3.92L46,39.96l-7-1.41-1.33-.27a1.993,1.993,0,0,1-1.23-.72A1.962,1.962,0,0,1,36,36.31V31" style="fill:none;stroke:#000;stroke-linejoin:round;stroke-width:2px"/><path d="M40,17h1a3,3,0,0,1,0,6H40" style="fill:none;stroke:#000;stroke-linejoin:round;stroke-width:2px"/><path d="M19,50v3a7.048,7.048,0,0,0-.5,1A23.169,23.169,0,0,0,17,63" style="fill:none;stroke:#000;stroke-linejoin:round;stroke-width:2px"/><polyline points="13 54 18.5 54 19 54" style="fill:none;stroke:#000;stroke-linejoin:round;stroke-width:2px"/><path d="M45,50v3a7.048,7.048,0,0,1,.5,1A23.169,23.169,0,0,1,47,63" style="fill:none;stroke:#000;stroke-linejoin:round;stroke-width:2px"/><polyline points="51 54 45.5 54 45 54" style="fill:none;stroke:#000;stroke-linejoin:round;stroke-width:2px"/><polyline points="27 37 27.56 37.56 32 42 36.44 37.56 37 37" style="fill:none;stroke:#000;stroke-linejoin:round;stroke-width:2px"/><polyline points="39 38 39 38.55 39 41 35 45 32 42 29 45 25 41 25 38.55 25 38" style="fill:none;stroke:#000;stroke-linejoin:round;stroke-width:2px"/><polyline points="29 45 31 47 33 47 35 45" style="fill:none;stroke:#000;stroke-linejoin:round;stroke-width:2px"/><polyline points="31 47 29 56 32 59 35 56 33 47" style="fill:none;stroke:#000;stroke-linejoin:round;stroke-width:2px"/><line style="fill:none;stroke:#000;stroke-linejoin:round;stroke-width:2px" x1="32" x2="32" y1="59" y2="63"/></g></svg>