<?xml version="1.0" ?><svg viewBox="0 0 64 64" xmlns="http://www.w3.org/2000/svg"><title/><g data-name="37-Guard" id="_37-Guard"><path d="M22.99,38.96l-6.81,1.37c-.13.03-.25.06-.37.1L15,38l7-2Z" style="fill:#ff7045"/><path d="M49,38l-.81,2.43c-.12-.04-.24-.07-.37-.1l-6.81-1.37L42,36Z" style="fill:#ff7045"/><path d="M32,42l-3,3-4-4V38.55l1.33-.27a1.993,1.993,0,0,0,1.23-.72Z" style="fill:#e9edf5"/><path d="M39,38.55V41l-4,4-3-3,4.44-4.44a1.993,1.993,0,0,0,1.23.72Z" style="fill:#e9edf5"/><path d="M51,51v5H46.18A10.9,10.9,0,0,0,45,53V51Z" style="fill:#e9edf5"/><path d="M19,51v2a10.9,10.9,0,0,0-1.18,3H13V51Z" style="fill:#e9edf5"/><path d="M32,51v5H17.82A10.9,10.9,0,0,1,19,53V51Z" style="fill:#e9edf5"/><path d="M46.18,56H32V51H45v2A10.9,10.9,0,0,1,46.18,56Z" style="fill:#e9edf5"/><path d="M18.5,56a7.149,7.149,0,0,1,.5-1V53a10.9,10.9,0,0,0-1.18,3Z" style="fill:#afb4c8"/><rect height="2" style="fill:#afb4c8" width="13" x="19" y="51"/><rect height="2" style="fill:#afb4c8" width="13" x="32" y="51"/><path d="M45.5,56h.678A10.9,10.9,0,0,0,45,53v2A7.149,7.149,0,0,1,45.5,56Z" style="fill:#afb4c8"/><path d="M13,56h4.82A27.177,27.177,0,0,0,17,63H13Z" style="fill:#ff7045"/><path d="M51,56v7H47a27.177,27.177,0,0,0-.82-7Z" style="fill:#ff7045"/><path d="M47,63H32V56H46.18A27.177,27.177,0,0,1,47,63Z" style="fill:#ff7045"/><path d="M32,56v7H17a27.177,27.177,0,0,1,.82-7Z" style="fill:#ff7045"/><path d="M46.865,63H47a27.177,27.177,0,0,0-.82-7H32v3H46.18A24.054,24.054,0,0,1,46.865,63Z" style="fill:#f92814"/><path d="M17.82,56A27.177,27.177,0,0,0,17,63h.135a24.054,24.054,0,0,1,.685-4H32V56Z" style="fill:#f92814"/><path d="M32,42v9H13V44.25a3.988,3.988,0,0,1,2.81-3.82c.12-.04.24-.07.37-.1l6.81-1.37L25,38.55V41l4,4Z" style="fill:#ff7045"/><path d="M41.01,38.96l6.81,1.37c.13.03.25.06.37.1A3.988,3.988,0,0,1,51,44.25V51H32V42l3,3,4-4V38.55Z" style="fill:#ff7045"/><path d="M29,45l-4-4V38.55l-2.01.41-6.81,1.37c-.13.03-.25.06-.37.1A3.988,3.988,0,0,0,13,44.25v3a3.988,3.988,0,0,1,2.81-3.82c.12-.04.24-.07.37-.1l6.81-1.37L25,41.55V44l4,4,3-3V42Z" style="fill:#f92814"/><path d="M48.19,40.43c-.12-.04-.24-.07-.37-.1l-6.81-1.37L39,38.55V41l-4,4-3-3v3l3,3,4-4V41.55l2.01.41,6.81,1.37c.13.03.25.06.37.1A3.988,3.988,0,0,1,51,47.25v-3A3.988,3.988,0,0,0,48.19,40.43Z" style="fill:#f92814"/><path d="M23.36,19l.55,6H23a3,3,0,0,1,0-6Z" style="fill:#ffb680"/><path d="M36.44,37.56,32,42l-4.44-4.44A1.962,1.962,0,0,0,28,36.31V33l.03-.06a7.964,7.964,0,0,0,7.94,0L36,33v3.31A1.962,1.962,0,0,0,36.44,37.56Z" style="fill:#ffb680"/><path d="M32,37a7.954,7.954,0,0,0,3.97-1.06L36,36V33l-.03-.06a7.964,7.964,0,0,1-7.94,0L28,33v3l.03-.06A7.954,7.954,0,0,0,32,37Z" style="fill:#eb975d"/><path d="M36,38l.44-.44A1.962,1.962,0,0,1,36,36.31Z" style="fill:#eb975d"/><path d="M28,36.31a1.962,1.962,0,0,1-.44,1.25L28,38Z" style="fill:#eb975d"/><path d="M23.91,25l-.55-6L23,15V14l.05-.27C24.6,14.9,27.31,16,32,16a15,15,0,0,0,8.52,4.79l-.07.21L40,26a7.954,7.954,0,0,1-1.06,3.97,7.751,7.751,0,0,1-2.97,2.97,7.964,7.964,0,0,1-7.94,0,7.844,7.844,0,0,1-2.97-2.97A7.954,7.954,0,0,1,24,26Z" style="fill:#ffdaaa"/><path d="M32,19a15.052,15.052,0,0,0,8.2,4.723L40.45,21l.07-.21A15,15,0,0,1,32,16c-4.69,0-7.4-1.1-8.95-2.27L23,14v1l.163,1.807C24.729,17.947,27.414,19,32,19Z" style="fill:#ffb680"/><path d="M23,14v1l.36,4H23a3,3,0,0,0,0,6h.91L24,26a7.954,7.954,0,0,0,1.06,3.97L25,30H18V15a13.948,13.948,0,0,1,1.87-7l.12-.04L20,8l1,3a5.067,5.067,0,0,0,2.05,2.73Z" style="fill:#414952"/><path d="M40.52,20.79A15,15,0,0,1,32,16c10,0,11-5,11-5l1-3,.05-.14A13.943,13.943,0,0,1,46,15V30H39l-.06-.03A7.954,7.954,0,0,0,40,26l.45-5Z" style="fill:#414952"/><path d="M34.22,18.04c3.988-.877,5.473-2.79,6-3.831C38.592,15.182,36.039,16,32,16A12.944,12.944,0,0,0,34.22,18.04Z" style="fill:#636978"/><path d="M44.05,7.86,44,8l-1,3a3.741,3.741,0,0,1-.55,1.177A13.972,13.972,0,0,1,43.5,17.5V30H46V15A13.943,13.943,0,0,0,44.05,7.86Z" style="fill:#636978"/><path d="M36,8V9a3.206,3.206,0,0,1-1.06,1.94A10.253,10.253,0,0,1,32,13a13.59,13.59,0,0,1-2.94-2.05A3,3,0,0,1,28,9V4h8Z" style="fill:#ffa426"/><path d="M30,11V6h6V4H28V9a3,3,0,0,0,1.06,1.95,9.74,9.74,0,0,0,1.219,1A1.97,1.97,0,0,1,30,11Z" style="fill:#ffda45"/><path d="M29,11H21L20,8h8V9a3,3,0,0,0,1.06,1.95Z" style="fill:#e9edf5"/><path d="M34.94,10.94A3.206,3.206,0,0,0,36,9V8h8l-1,3H35Z" style="fill:#e9edf5"/><path d="M35,11h8a5.33,5.33,0,0,1-2.37,2.97C39.03,15.04,36.38,16,32,16c-10,0-11-5-11-5h8l.06-.05A13.59,13.59,0,0,0,32,13a10.253,10.253,0,0,0,2.94-2.06Z" style="fill:#afb4c8"/><path d="M20,8l-.05-.14L19,5V3l2-2H43l2,2V5l-.99,2.96L44,8H36V4H28V8Z" style="fill:#ff7045"/><polygon points="43 1 21 1 19 3 19 5 21 3 43 3 45 5 45 3 43 1" style="fill:#f92814"/><polyline points="21 11 20 8 19.99 7.96 19 5 19 3 21 1 43 1 45 3 45 5 44.05 7.86 44 8 43 11" style="fill:none;stroke:#000;stroke-linejoin:round;stroke-width:2px"/><path d="M21,11a5.067,5.067,0,0,0,2.05,2.73C24.6,14.9,27.31,16,32,16c10,0,11-5,11-5" style="fill:none;stroke:#000;stroke-linejoin:round;stroke-width:2px"/><path d="M36,8V4H28V9a3.206,3.206,0,0,0,1.06,1.94A10.253,10.253,0,0,0,32,13a13.59,13.59,0,0,0,2.94-2.05A3,3,0,0,0,36,9Z" style="fill:none;stroke:#000;stroke-linejoin:round;stroke-width:2px"/><line style="fill:none;stroke:#000;stroke-linejoin:round;stroke-width:2px" x1="43" x2="35" y1="11" y2="11"/><line style="fill:none;stroke:#000;stroke-linejoin:round;stroke-width:2px" x1="29" x2="21" y1="11" y2="11"/><line style="fill:none;stroke:#000;stroke-linejoin:round;stroke-width:2px" x1="36" x2="44" y1="8" y2="8"/><line style="fill:none;stroke:#000;stroke-linejoin:round;stroke-width:2px" x1="28" x2="20" y1="8" y2="8"/><path d="M23,14v1l.36,4,.55,6L24,26a7.954,7.954,0,0,0,1.06,3.97,7.844,7.844,0,0,0,2.97,2.97,7.964,7.964,0,0,0,7.94,0,7.751,7.751,0,0,0,2.97-2.97A7.954,7.954,0,0,0,40,26l.45-5" style="fill:none;stroke:#000;stroke-linejoin:round;stroke-width:2px"/><path d="M44,7.78c.02.03.03.05.05.08A13.943,13.943,0,0,1,46,15V30H39" style="fill:none;stroke:#000;stroke-linejoin:round;stroke-width:2px"/><path d="M19.87,8A13.948,13.948,0,0,0,18,15V30h7" style="fill:none;stroke:#000;stroke-linejoin:round;stroke-width:2px"/><path d="M24,19H23a3,3,0,0,0,0,6h1" style="fill:none;stroke:#000;stroke-linejoin:round;stroke-width:2px"/><path d="M32,16a14.566,14.566,0,0,0,11,5" style="fill:none;stroke:#000;stroke-linejoin:round;stroke-width:2px"/><path d="M36,33v3.31a1.962,1.962,0,0,0,.44,1.25,1.993,1.993,0,0,0,1.23.72l1.33.27,2.01.41,6.81,1.37c.13.03.25.06.37.1A3.988,3.988,0,0,1,51,44.25V63H13V44.25a3.988,3.988,0,0,1,2.81-3.82c.12-.04.24-.07.37-.1l6.81-1.37L25,38.55l1.33-.27a1.993,1.993,0,0,0,1.23-.72A1.962,1.962,0,0,0,28,36.31V33" style="fill:none;stroke:#000;stroke-linejoin:round;stroke-width:2px"/><path d="M45,48v5a10.9,10.9,0,0,1,1.18,3A27.177,27.177,0,0,1,47,63" style="fill:none;stroke:#000;stroke-linejoin:round;stroke-width:2px"/><path d="M19,48v5a10.9,10.9,0,0,0-1.18,3A27.177,27.177,0,0,0,17,63" style="fill:none;stroke:#000;stroke-linejoin:round;stroke-width:2px"/><polyline points="23 39 22.99 38.96 22 36 15 38 15.81 40.43 16 41" style="fill:none;stroke:#000;stroke-linejoin:round;stroke-width:2px"/><polyline points="41 39 41.01 38.96 42 36 49 38 48.19 40.43 48 41" style="fill:none;stroke:#000;stroke-linejoin:round;stroke-width:2px"/><polyline points="37 37 36.44 37.56 32 42 27.56 37.56 27 37" style="fill:none;stroke:#000;stroke-linejoin:round;stroke-width:2px"/><polyline points="25 38 25 38.55 25 41 29 45 32 42 35 45 39 41 39 38.55 39 38" style="fill:none;stroke:#000;stroke-linejoin:round;stroke-width:2px"/><polyline points="32 42 32 51 32 56 32 63" style="fill:none;stroke:#000;stroke-linejoin:round;stroke-width:2px"/><polyline points="51 51 45 51 32 51 19 51 13 51" style="fill:none;stroke:#000;stroke-linejoin:round;stroke-width:2px"/><polyline points="51 56 46.18 56 32 56 17.82 56 13 56" style="fill:none;stroke:#000;stroke-linejoin:round;stroke-width:2px"/></g></svg>