<?xml version="1.0" ?><svg viewBox="0 0 64 64" xmlns="http://www.w3.org/2000/svg"><title/><g data-name="27-man" id="_27-man"><polygon points="28 37 28 48 23 45 25 38 24.93 37.65 28 37" style="fill:#707789"/><polygon points="39 38 41 45 36 48 36 37 39.07 37.65 39 38" style="fill:#707789"/><path d="M25,11v2l-1,1v2a3.906,3.906,0,0,0-.97.12L23,16l-2-1V9l.12-.16L24,11Z" style="fill:#707789"/><path d="M43,9v6l-2,1-.03.12A3.906,3.906,0,0,0,40,16V14l-1-1V11h1l2.88-2.16Z" style="fill:#707789"/><path d="M32,11H24L21.12,8.84,20,8c1-1,2.97-3.04,4.06-4A12.007,12.007,0,0,1,39.94,4C41.03,4.96,43,7,44,8l-1.12.84L40,11H32Z" style="fill:#414952"/><path d="M21.705,9.278C22.549,8.429,23.444,7.543,24.06,7A12.007,12.007,0,0,1,39.94,7c.616.543,1.511,1.429,2.355,2.278l.585-.438L44,8c-1-1-2.97-3.04-4.06-4A12.007,12.007,0,0,0,24.06,4C22.97,4.96,21,7,20,8l1.12.84Z" style="fill:#707789"/><path d="M40.97,16.12A4,4,0,0,1,40,24V16A3.906,3.906,0,0,1,40.97,16.12Z" style="fill:#eb975d"/><path d="M24,16v8a4,4,0,0,1-.97-7.88A3.906,3.906,0,0,1,24,16Z" style="fill:#eb975d"/><path d="M36,32v5s0,4-4,4-4-4-4-4V32l.03-.06a7.964,7.964,0,0,0,7.94,0Z" style="fill:#ffb680"/><path d="M35.97,31.94a7.964,7.964,0,0,1-7.94,0L28,32v3l.03-.06a7.964,7.964,0,0,0,7.94,0L36,35V32Z" style="fill:#eb975d"/><path d="M40,24v1a8.014,8.014,0,0,1-2.34,5.66,7.838,7.838,0,0,1-1.69,1.28A8,8,0,0,1,24,25V14l1-1V11H39v2l1,1V24Z" style="fill:#ffdaaa"/><polygon points="39 13 39 11 35 11 32 11 29 11 25 11 25 13 24 14 24 16 24 18 25 17 25 15 29 15 32 15 35 15 39 15 39 17 40 18 40 16 40 14 39 13" style="fill:#ffb680"/><path d="M36,48V63H28V37s0,4,4,4,4-4,4-4Z" style="fill:#414952"/><polygon points="28 48 28 63 15 63 9 63 9 41 24.93 37.65 25 38 23 45 28 48" style="fill:#e9edf5"/><polygon points="36 63 36 48 41 45 39 38 39.07 37.65 55 41 55 63 49 63 36 63" style="fill:#e9edf5"/><polygon points="25 38 24.93 37.65 9 41 9 45 23.895 41.868 25 38" style="fill:#afb4c8"/><polygon points="23.976 45.585 23 49 28 52 28 48 23.976 45.585" style="fill:#afb4c8"/><polygon points="40.024 45.585 36 48 36 52 41 49 40.024 45.585" style="fill:#afb4c8"/><polygon points="39.07 37.65 39 38 40.105 41.868 55 45 55 41 39.07 37.65" style="fill:#afb4c8"/><path d="M25,11v2l-1,1V25a7.992,7.992,0,0,0,11.97,6.94,7.838,7.838,0,0,0,1.69-1.28A8.014,8.014,0,0,0,40,25V14l-1-1V11" style="fill:none;stroke:#000;stroke-linejoin:round;stroke-width:2px"/><path d="M25,11H24L21.12,8.84,20,8c1-1,2.97-3.04,4.06-4A12.007,12.007,0,0,1,39.94,4C41.03,4.96,43,7,44,8l-1.12.84L40,11H25Z" style="fill:none;stroke:#000;stroke-linejoin:round;stroke-width:2px"/><path d="M40,24a4,4,0,0,0,.97-7.88A3.906,3.906,0,0,0,40,16" style="fill:none;stroke:#000;stroke-linejoin:round;stroke-width:2px"/><path d="M24,16a3.906,3.906,0,0,0-.97.12A4,4,0,0,0,24,24" style="fill:none;stroke:#000;stroke-linejoin:round;stroke-width:2px"/><polyline points="28 32 28 37 24.93 37.65 9 41 9 63 15 63 28 63 36 63 49 63 55 63 55 41 39.07 37.65 36 37 36 32" style="fill:none;stroke:#000;stroke-linejoin:round;stroke-width:2px"/><line style="fill:none;stroke:#000;stroke-linejoin:round;stroke-width:2px" x1="15" x2="15" y1="63" y2="50"/><line style="fill:none;stroke:#000;stroke-linejoin:round;stroke-width:2px" x1="49" x2="49" y1="63" y2="50"/><polyline points="43 9 43 15 41 16" style="fill:none;stroke:#000;stroke-linejoin:round;stroke-width:2px"/><polyline points="21 9 21 15 23 16" style="fill:none;stroke:#000;stroke-linejoin:round;stroke-width:2px"/><line style="fill:none;stroke:#000;stroke-linejoin:round;stroke-width:2px" x1="32" x2="32" y1="11" y2="3"/><line style="fill:none;stroke:#000;stroke-linejoin:round;stroke-width:2px" x1="35" x2="38" y1="11" y2="6"/><line style="fill:none;stroke:#000;stroke-linejoin:round;stroke-width:2px" x1="29" x2="26" y1="11" y2="6"/><path d="M28,63V37s0,4,4,4,4-4,4-4V63" style="fill:none;stroke:#000;stroke-linejoin:round;stroke-width:2px"/><polyline points="36 48 41 45 39 38" style="fill:none;stroke:#000;stroke-linejoin:round;stroke-width:2px"/><polyline points="28 48 23 45 25 38" style="fill:none;stroke:#000;stroke-linejoin:round;stroke-width:2px"/><line style="fill:none;stroke:#000;stroke-linejoin:round;stroke-width:2px" x1="24" x2="26" y1="52" y2="52"/><line style="fill:none;stroke:#000;stroke-linejoin:round;stroke-width:2px" x1="38" x2="40" y1="52" y2="52"/></g></svg>